<?xml version="1.0" encoding="UTF-8"?>
<svg xmlns="http://www.w3.org/2000/svg" xmlns:xlink="http://www.w3.org/1999/xlink" width="375pt" height="374.999991pt" viewBox="0 0 375 374.999991" version="1.2">
<g id="surface1">
<path style=" stroke:none;fill-rule:nonzero;fill:rgb(14.509583%,39.219666%,65.489197%);fill-opacity:1;" d="M 140.625 299.90625 L 140.625 75.09375 L 269.085938 187.5 Z M 156.070312 317.554688 L 284.507812 205.148438 C 285.136719 204.601562 285.730469 204.019531 286.296875 203.40625 C 286.863281 202.796875 287.394531 202.15625 287.890625 201.488281 C 288.390625 200.816406 288.851562 200.125 289.273438 199.40625 C 289.695312 198.6875 290.082031 197.949219 290.425781 197.191406 C 290.769531 196.433594 291.074219 195.65625 291.335938 194.867188 C 291.597656 194.074219 291.816406 193.273438 291.992188 192.457031 C 292.167969 191.644531 292.300781 190.820312 292.390625 189.992188 C 292.480469 189.164062 292.523438 188.332031 292.523438 187.5 C 292.523438 186.667969 292.480469 185.835938 292.390625 185.007812 C 292.300781 184.179688 292.167969 183.355469 291.992188 182.542969 C 291.816406 181.726562 291.597656 180.925781 291.335938 180.132812 C 291.074219 179.34375 290.769531 178.566406 290.425781 177.808594 C 290.082031 177.050781 289.695312 176.3125 289.273438 175.59375 C 288.851562 174.875 288.390625 174.183594 287.890625 173.511719 C 287.394531 172.84375 286.863281 172.203125 286.296875 171.59375 C 285.730469 170.980469 285.136719 170.398438 284.507812 169.851562 L 156.09375 57.445312 C 140.882812 44.179688 117.1875 54.960938 117.1875 75.09375 L 117.1875 299.90625 C 117.1875 301.027344 117.265625 302.140625 117.425781 303.25 C 117.582031 304.359375 117.820312 305.453125 118.136719 306.527344 C 118.453125 307.601562 118.84375 308.652344 119.308594 309.667969 C 119.773438 310.6875 120.3125 311.667969 120.917969 312.613281 C 121.523438 313.554688 122.195312 314.449219 122.929688 315.292969 C 123.664062 316.140625 124.457031 316.929688 125.304688 317.664062 C 126.152344 318.394531 127.046875 319.0625 127.992188 319.667969 C 128.933594 320.273438 129.917969 320.804688 130.9375 321.269531 C 131.957031 321.730469 133.007812 322.121094 134.082031 322.433594 C 135.160156 322.746094 136.253906 322.980469 137.363281 323.136719 C 138.472656 323.292969 139.585938 323.367188 140.707031 323.363281 C 141.828125 323.359375 142.941406 323.277344 144.050781 323.113281 C 145.160156 322.949219 146.25 322.707031 147.324219 322.386719 C 148.398438 322.066406 149.445312 321.671875 150.460938 321.199219 C 151.476562 320.730469 152.457031 320.1875 153.398438 319.578125 C 154.335938 318.96875 155.226562 318.292969 156.070312 317.554688 Z M 156.070312 317.554688 "/>
</g>
</svg>
