<?xml version="1.0" encoding="UTF-8"?>
<svg xmlns="http://www.w3.org/2000/svg" xmlns:xlink="http://www.w3.org/1999/xlink" width="375pt" height="374.999991pt" viewBox="0 0 375 374.999991" version="1.2">
<g id="surface1">
<path style=" stroke:none;fill-rule:nonzero;fill:rgb(14.509583%,39.219666%,65.489197%);fill-opacity:1;" d="M 284.53125 205.148438 L 156.046875 317.554688 C 140.90625 330.820312 117.1875 320.039062 117.1875 299.90625 L 117.1875 75.09375 C 117.1875 73.972656 117.265625 72.859375 117.425781 71.75 C 117.582031 70.640625 117.820312 69.546875 118.136719 68.472656 C 118.453125 67.398438 118.84375 66.347656 119.308594 65.332031 C 119.773438 64.3125 120.3125 63.332031 120.917969 62.386719 C 121.523438 61.445312 122.195312 60.550781 122.929688 59.707031 C 123.664062 58.859375 124.457031 58.070312 125.304688 57.335938 C 126.152344 56.605469 127.046875 55.9375 127.992188 55.332031 C 128.933594 54.726562 129.917969 54.195312 130.9375 53.730469 C 131.957031 53.269531 133.007812 52.878906 134.082031 52.566406 C 135.160156 52.253906 136.253906 52.019531 137.363281 51.863281 C 138.472656 51.707031 139.585938 51.632812 140.707031 51.636719 C 141.828125 51.640625 142.941406 51.722656 144.050781 51.886719 C 145.160156 52.050781 146.25 52.292969 147.324219 52.613281 C 148.398438 52.933594 149.445312 53.328125 150.460938 53.800781 C 151.476562 54.269531 152.457031 54.8125 153.398438 55.421875 C 154.335938 56.03125 155.226562 56.707031 156.070312 57.445312 L 284.507812 169.851562 C 285.136719 170.398438 285.730469 170.980469 286.296875 171.59375 C 286.863281 172.203125 287.394531 172.84375 287.890625 173.511719 C 288.390625 174.183594 288.851562 174.875 289.273438 175.59375 C 289.695312 176.3125 290.082031 177.050781 290.425781 177.808594 C 290.769531 178.566406 291.074219 179.34375 291.335938 180.132812 C 291.597656 180.925781 291.816406 181.726562 291.992188 182.542969 C 292.167969 183.355469 292.300781 184.179688 292.390625 185.007812 C 292.480469 185.835938 292.523438 186.667969 292.523438 187.5 C 292.523438 188.332031 292.480469 189.164062 292.390625 189.992188 C 292.300781 190.820312 292.167969 191.644531 291.992188 192.457031 C 291.816406 193.273438 291.597656 194.074219 291.335938 194.867188 C 291.074219 195.65625 290.769531 196.433594 290.425781 197.191406 C 290.082031 197.949219 289.695312 198.6875 289.273438 199.40625 C 288.851562 200.125 288.390625 200.816406 287.890625 201.488281 C 287.394531 202.15625 286.863281 202.796875 286.296875 203.40625 C 285.730469 204.019531 285.136719 204.601562 284.507812 205.148438 Z M 284.53125 205.148438 "/>
</g>
</svg>
