<?xml version="1.0" encoding="UTF-8"?>
<svg xmlns="http://www.w3.org/2000/svg" xmlns:xlink="http://www.w3.org/1999/xlink" width="375pt" height="374.999991pt" viewBox="0 0 375 374.999991" version="1.2">
<g id="surface1">
<path style=" stroke:none;fill-rule:nonzero;fill:rgb(14.509583%,39.219666%,65.489197%);fill-opacity:1;" d="M 1.171875 83.320312 C 1.464844 82.039062 1.808594 80.769531 2.210938 79.515625 C 2.609375 78.261719 3.0625 77.027344 3.5625 75.8125 C 4.066406 74.597656 4.621094 73.40625 5.226562 72.234375 C 5.828125 71.066406 6.480469 69.925781 7.179688 68.8125 C 7.878906 67.699219 8.625 66.613281 9.417969 65.5625 C 10.207031 64.511719 11.042969 63.496094 11.917969 62.515625 C 12.796875 61.535156 13.710938 60.59375 14.667969 59.6875 C 15.625 58.785156 16.617188 57.921875 17.644531 57.101562 C 18.675781 56.28125 19.734375 55.507812 20.828125 54.773438 C 21.921875 54.042969 23.046875 53.359375 24.199219 52.722656 C 25.347656 52.085938 26.527344 51.5 27.726562 50.964844 C 28.925781 50.425781 30.148438 49.941406 31.390625 49.503906 C 32.632812 49.070312 33.890625 48.691406 35.164062 48.359375 C 36.4375 48.03125 37.726562 47.757812 39.023438 47.539062 C 40.320312 47.316406 41.625 47.152344 42.933594 47.039062 C 44.246094 46.929688 45.558594 46.875 46.875 46.875 L 328.125 46.875 C 329.441406 46.875 330.753906 46.929688 332.066406 47.039062 C 333.375 47.152344 334.679688 47.316406 335.976562 47.535156 C 337.273438 47.757812 338.558594 48.03125 339.835938 48.359375 C 341.109375 48.6875 342.367188 49.070312 343.609375 49.503906 C 344.851562 49.9375 346.070312 50.425781 347.273438 50.960938 C 348.472656 51.5 349.648438 52.085938 350.800781 52.722656 C 351.953125 53.359375 353.074219 54.042969 354.167969 54.773438 C 355.261719 55.503906 356.324219 56.28125 357.351562 57.101562 C 358.382812 57.921875 359.375 58.785156 360.332031 59.6875 C 361.285156 60.589844 362.203125 61.535156 363.078125 62.515625 C 363.957031 63.496094 364.789062 64.511719 365.582031 65.5625 C 366.371094 66.613281 367.117188 67.695312 367.820312 68.8125 C 368.519531 69.925781 369.171875 71.066406 369.773438 72.234375 C 370.378906 73.40625 370.933594 74.597656 371.433594 75.8125 C 371.9375 77.027344 372.390625 78.261719 372.789062 79.515625 C 373.1875 80.769531 373.535156 82.039062 373.828125 83.320312 L 187.5 197.203125 Z M 0 110.085938 L 0 276.585938 L 136.007812 193.195312 Z M 158.460938 206.953125 L 4.476562 301.335938 C 5.421875 303.332031 6.503906 305.25 7.722656 307.09375 C 8.941406 308.9375 10.28125 310.683594 11.746094 312.335938 C 13.210938 313.988281 14.785156 315.53125 16.46875 316.960938 C 18.148438 318.394531 19.925781 319.699219 21.792969 320.878906 C 23.660156 322.058594 25.601562 323.101562 27.613281 324.003906 C 29.628906 324.910156 31.695312 325.667969 33.820312 326.28125 C 35.941406 326.894531 38.09375 327.355469 40.28125 327.664062 C 42.46875 327.972656 44.667969 328.128906 46.875 328.125 L 328.125 328.125 C 330.332031 328.125 332.53125 327.96875 334.71875 327.660156 C 336.902344 327.351562 339.058594 326.886719 341.179688 326.273438 C 343.300781 325.660156 345.367188 324.898438 347.378906 323.992188 C 349.394531 323.085938 351.332031 322.042969 353.199219 320.863281 C 355.066406 319.679688 356.839844 318.375 358.519531 316.941406 C 360.203125 315.511719 361.773438 313.96875 363.238281 312.316406 C 364.703125 310.660156 366.042969 308.914062 367.257812 307.070312 C 368.472656 305.226562 369.554688 303.308594 370.5 301.3125 L 216.515625 206.929688 L 187.5 224.671875 L 158.460938 206.929688 Z M 238.992188 193.21875 L 375 276.585938 L 375 110.085938 L 238.992188 193.195312 Z M 238.992188 193.21875 "/>
</g>
</svg>
