<?xml version="1.0" encoding="UTF-8"?>
<svg xmlns="http://www.w3.org/2000/svg" xmlns:xlink="http://www.w3.org/1999/xlink" width="375pt" height="374.999991pt" viewBox="0 0 375 374.999991" version="1.2">
<g id="surface1">
<path style=" stroke:none;fill-rule:nonzero;fill:rgb(14.509583%,39.219666%,65.489197%);fill-opacity:1;" d="M 116.71875 93.75 C 115.839844 93.75 114.972656 93.851562 114.117188 94.046875 C 113.261719 94.242188 112.4375 94.53125 111.648438 94.914062 C 110.855469 95.292969 110.117188 95.757812 109.429688 96.304688 C 108.742188 96.851562 108.125 97.46875 107.578125 98.15625 L 36.09375 187.5 L 140.625 187.5 C 141.394531 187.5 142.15625 187.574219 142.910156 187.726562 C 143.664062 187.875 144.398438 188.097656 145.109375 188.390625 C 145.820312 188.6875 146.496094 189.046875 147.136719 189.476562 C 147.773438 189.902344 148.367188 190.386719 148.910156 190.933594 C 149.457031 191.476562 149.941406 192.066406 150.367188 192.707031 C 150.796875 193.347656 151.15625 194.023438 151.453125 194.734375 C 151.746094 195.445312 151.96875 196.179688 152.117188 196.933594 C 152.269531 197.6875 152.34375 198.449219 152.34375 199.21875 C 152.34375 200.371094 152.398438 201.519531 152.511719 202.664062 C 152.625 203.808594 152.792969 204.949219 153.019531 206.078125 C 153.242188 207.207031 153.523438 208.320312 153.859375 209.425781 C 154.191406 210.527344 154.578125 211.609375 155.019531 212.671875 C 155.460938 213.734375 155.953125 214.777344 156.496094 215.792969 C 157.039062 216.808594 157.628906 217.792969 158.269531 218.75 C 158.910156 219.707031 159.59375 220.632812 160.324219 221.523438 C 161.054688 222.410156 161.828125 223.265625 162.640625 224.078125 C 163.453125 224.890625 164.308594 225.664062 165.195312 226.394531 C 166.085938 227.125 167.011719 227.808594 167.96875 228.449219 C 168.925781 229.089844 169.910156 229.679688 170.925781 230.222656 C 171.941406 230.765625 172.984375 231.257812 174.046875 231.699219 C 175.109375 232.140625 176.191406 232.527344 177.292969 232.859375 C 178.398438 233.195312 179.511719 233.476562 180.640625 233.699219 C 181.769531 233.925781 182.910156 234.09375 184.054688 234.207031 C 185.199219 234.320312 186.347656 234.375 187.5 234.375 C 188.652344 234.375 189.800781 234.320312 190.945312 234.207031 C 192.089844 234.09375 193.230469 233.925781 194.359375 233.699219 C 195.488281 233.476562 196.601562 233.195312 197.707031 232.859375 C 198.808594 232.527344 199.890625 232.140625 200.953125 231.699219 C 202.015625 231.257812 203.058594 230.765625 204.074219 230.222656 C 205.089844 229.679688 206.074219 229.089844 207.03125 228.449219 C 207.988281 227.808594 208.914062 227.125 209.804688 226.394531 C 210.691406 225.664062 211.546875 224.890625 212.359375 224.078125 C 213.171875 223.265625 213.945312 222.410156 214.675781 221.523438 C 215.40625 220.632812 216.089844 219.707031 216.730469 218.75 C 217.371094 217.792969 217.960938 216.808594 218.503906 215.792969 C 219.046875 214.777344 219.539062 213.734375 219.980469 212.671875 C 220.421875 211.609375 220.808594 210.527344 221.140625 209.425781 C 221.476562 208.320312 221.757812 207.207031 221.980469 206.078125 C 222.207031 204.949219 222.375 203.808594 222.488281 202.664062 C 222.601562 201.519531 222.65625 200.371094 222.65625 199.21875 C 222.65625 198.449219 222.730469 197.6875 222.882812 196.933594 C 223.03125 196.179688 223.253906 195.445312 223.546875 194.734375 C 223.84375 194.023438 224.203125 193.347656 224.632812 192.707031 C 225.058594 192.066406 225.542969 191.476562 226.089844 190.933594 C 226.632812 190.386719 227.222656 189.902344 227.863281 189.476562 C 228.503906 189.046875 229.179688 188.6875 229.890625 188.390625 C 230.601562 188.097656 231.335938 187.875 232.089844 187.726562 C 232.84375 187.574219 233.605469 187.5 234.375 187.5 L 338.90625 187.5 L 267.421875 98.15625 C 266.875 97.46875 266.257812 96.851562 265.570312 96.304688 C 264.882812 95.757812 264.144531 95.292969 263.351562 94.914062 C 262.5625 94.53125 261.738281 94.242188 260.882812 94.046875 C 260.027344 93.851562 259.160156 93.75 258.28125 93.75 Z M 89.296875 83.507812 C 90.941406 81.453125 92.792969 79.601562 94.855469 77.960938 C 96.914062 76.324219 99.132812 74.929688 101.507812 73.789062 C 103.878906 72.648438 106.347656 71.78125 108.917969 71.195312 C 111.484375 70.609375 114.085938 70.316406 116.71875 70.3125 L 258.28125 70.3125 C 260.914062 70.316406 263.515625 70.609375 266.082031 71.195312 C 268.652344 71.78125 271.121094 72.648438 273.492188 73.789062 C 275.867188 74.929688 278.085938 76.324219 280.144531 77.960938 C 282.207031 79.601562 284.058594 81.453125 285.703125 83.507812 L 372.421875 191.90625 C 373.410156 193.140625 374.121094 194.515625 374.550781 196.039062 C 374.980469 197.558594 375.101562 199.101562 374.90625 200.671875 L 365.765625 273.890625 C 365.632812 274.941406 365.457031 275.988281 365.230469 277.023438 C 365.003906 278.058594 364.730469 279.082031 364.414062 280.09375 C 364.09375 281.105469 363.730469 282.101562 363.320312 283.078125 C 362.914062 284.058594 362.460938 285.015625 361.964844 285.953125 C 361.46875 286.890625 360.933594 287.804688 360.355469 288.695312 C 359.777344 289.582031 359.160156 290.445312 358.503906 291.277344 C 357.847656 292.109375 357.15625 292.914062 356.429688 293.683594 C 355.699219 294.453125 354.9375 295.191406 354.140625 295.890625 C 353.347656 296.59375 352.523438 297.257812 351.667969 297.882812 C 350.8125 298.511719 349.929688 299.097656 349.023438 299.644531 C 348.113281 300.191406 347.183594 300.699219 346.226562 301.160156 C 345.273438 301.625 344.300781 302.042969 343.308594 302.417969 C 342.316406 302.792969 341.308594 303.121094 340.289062 303.40625 C 339.265625 303.6875 338.234375 303.925781 337.191406 304.117188 C 336.148438 304.308594 335.097656 304.449219 334.042969 304.546875 C 332.984375 304.640625 331.925781 304.6875 330.867188 304.6875 L 44.132812 304.6875 C 43.074219 304.6875 42.015625 304.640625 40.957031 304.546875 C 39.902344 304.449219 38.851562 304.308594 37.808594 304.117188 C 36.765625 303.925781 35.734375 303.6875 34.710938 303.40625 C 33.691406 303.121094 32.683594 302.792969 31.691406 302.417969 C 30.699219 302.042969 29.726562 301.625 28.773438 301.160156 C 27.816406 300.699219 26.886719 300.191406 25.976562 299.644531 C 25.070312 299.097656 24.1875 298.511719 23.332031 297.882812 C 22.476562 297.257812 21.652344 296.59375 20.855469 295.890625 C 20.0625 295.191406 19.300781 294.453125 18.570312 293.683594 C 17.84375 292.914062 17.152344 292.109375 16.496094 291.277344 C 15.839844 290.445312 15.222656 289.582031 14.644531 288.695312 C 14.066406 287.804688 13.53125 286.890625 13.035156 285.953125 C 12.539062 285.015625 12.085938 284.058594 11.679688 283.078125 C 11.269531 282.101562 10.90625 281.105469 10.585938 280.09375 C 10.269531 279.082031 9.996094 278.058594 9.769531 277.023438 C 9.542969 275.988281 9.367188 274.941406 9.234375 273.890625 L 0.09375 200.671875 C -0.101562 199.101562 0.0195312 197.558594 0.449219 196.039062 C 0.878906 194.515625 1.589844 193.140625 2.578125 191.90625 Z M 89.296875 83.507812 "/>
</g>
</svg>
