<?xml version="1.0" encoding="UTF-8"?>
<svg xmlns="http://www.w3.org/2000/svg" xmlns:xlink="http://www.w3.org/1999/xlink" width="375pt" height="374.999991pt" viewBox="0 0 375 374.999991" version="1.2">
<g id="surface1">
<path style=" stroke:none;fill-rule:nonzero;fill:rgb(14.509583%,39.219666%,65.489197%);fill-opacity:1;" d="M 116.71875 93.75 C 115.839844 93.75 114.972656 93.851562 114.117188 94.046875 C 113.261719 94.242188 112.4375 94.53125 111.648438 94.914062 C 110.855469 95.292969 110.117188 95.757812 109.429688 96.304688 C 108.742188 96.851562 108.125 97.46875 107.578125 98.15625 L 36.09375 187.5 L 140.625 187.5 C 141.394531 187.5 142.15625 187.574219 142.910156 187.726562 C 143.664062 187.875 144.398438 188.097656 145.109375 188.390625 C 145.820312 188.6875 146.496094 189.046875 147.136719 189.476562 C 147.773438 189.902344 148.367188 190.386719 148.910156 190.933594 C 149.457031 191.476562 149.941406 192.066406 150.367188 192.707031 C 150.796875 193.347656 151.15625 194.023438 151.453125 194.734375 C 151.746094 195.445312 151.96875 196.179688 152.117188 196.933594 C 152.269531 197.6875 152.34375 198.449219 152.34375 199.21875 C 152.34375 200.371094 152.398438 201.519531 152.511719 202.664062 C 152.625 203.808594 152.792969 204.949219 153.019531 206.078125 C 153.242188 207.207031 153.523438 208.320312 153.859375 209.425781 C 154.191406 210.527344 154.578125 211.609375 155.019531 212.671875 C 155.460938 213.734375 155.953125 214.777344 156.496094 215.792969 C 157.039062 216.808594 157.628906 217.792969 158.269531 218.75 C 158.910156 219.707031 159.59375 220.632812 160.324219 221.523438 C 161.054688 222.410156 161.828125 223.265625 162.640625 224.078125 C 163.453125 224.890625 164.308594 225.664062 165.195312 226.394531 C 166.085938 227.125 167.011719 227.808594 167.96875 228.449219 C 168.925781 229.089844 169.910156 229.679688 170.925781 230.222656 C 171.941406 230.765625 172.984375 231.257812 174.046875 231.699219 C 175.109375 232.140625 176.191406 232.527344 177.292969 232.859375 C 178.398438 233.195312 179.511719 233.476562 180.640625 233.699219 C 181.769531 233.925781 182.910156 234.09375 184.054688 234.207031 C 185.199219 234.320312 186.347656 234.375 187.5 234.375 C 188.652344 234.375 189.800781 234.320312 190.945312 234.207031 C 192.089844 234.09375 193.230469 233.925781 194.359375 233.699219 C 195.488281 233.476562 196.601562 233.195312 197.707031 232.859375 C 198.808594 232.527344 199.890625 232.140625 200.953125 231.699219 C 202.015625 231.257812 203.058594 230.765625 204.074219 230.222656 C 205.089844 229.679688 206.074219 229.089844 207.03125 228.449219 C 207.988281 227.808594 208.914062 227.125 209.804688 226.394531 C 210.691406 225.664062 211.546875 224.890625 212.359375 224.078125 C 213.171875 223.265625 213.945312 222.410156 214.675781 221.523438 C 215.40625 220.632812 216.089844 219.707031 216.730469 218.75 C 217.371094 217.792969 217.960938 216.808594 218.503906 215.792969 C 219.046875 214.777344 219.539062 213.734375 219.980469 212.671875 C 220.421875 211.609375 220.808594 210.527344 221.140625 209.425781 C 221.476562 208.320312 221.757812 207.207031 221.980469 206.078125 C 222.207031 204.949219 222.375 203.808594 222.488281 202.664062 C 222.601562 201.519531 222.65625 200.371094 222.65625 199.21875 C 222.65625 198.449219 222.730469 197.6875 222.882812 196.933594 C 223.03125 196.179688 223.253906 195.445312 223.546875 194.734375 C 223.84375 194.023438 224.203125 193.347656 224.632812 192.707031 C 225.058594 192.066406 225.542969 191.476562 226.089844 190.933594 C 226.632812 190.386719 227.222656 189.902344 227.863281 189.476562 C 228.503906 189.046875 229.179688 188.6875 229.890625 188.390625 C 230.601562 188.097656 231.335938 187.875 232.089844 187.726562 C 232.84375 187.574219 233.605469 187.5 234.375 187.5 L 338.90625 187.5 L 267.421875 98.15625 C 266.875 97.46875 266.257812 96.851562 265.570312 96.304688 C 264.882812 95.757812 264.144531 95.292969 263.351562 94.914062 C 262.5625 94.53125 261.738281 94.242188 260.882812 94.046875 C 260.027344 93.851562 259.160156 93.75 258.28125 93.75 Z M 350.015625 210.9375 L 244.921875 210.9375 C 244.589844 212.578125 244.1875 214.203125 243.714844 215.808594 C 243.242188 217.414062 242.703125 218.996094 242.09375 220.554688 C 241.484375 222.117188 240.8125 223.644531 240.074219 225.148438 C 239.335938 226.648438 238.53125 228.117188 237.667969 229.550781 C 236.800781 230.984375 235.878906 232.378906 234.894531 233.730469 C 233.910156 235.085938 232.867188 236.394531 231.773438 237.660156 C 230.675781 238.925781 229.527344 240.140625 228.328125 241.304688 C 227.125 242.472656 225.878906 243.585938 224.582031 244.644531 C 223.285156 245.703125 221.945312 246.707031 220.5625 247.652344 C 219.183594 248.59375 217.761719 249.480469 216.304688 250.300781 C 214.847656 251.125 213.355469 251.882812 211.832031 252.578125 C 210.3125 253.273438 208.761719 253.902344 207.183594 254.464844 C 205.609375 255.027344 204.011719 255.523438 202.390625 255.949219 C 200.773438 256.371094 199.136719 256.726562 197.488281 257.011719 C 195.839844 257.300781 194.179688 257.511719 192.511719 257.65625 C 190.84375 257.800781 189.175781 257.871094 187.5 257.871094 C 185.824219 257.871094 184.15625 257.800781 182.488281 257.65625 C 180.820312 257.511719 179.160156 257.300781 177.511719 257.011719 C 175.863281 256.726562 174.226562 256.371094 172.609375 255.949219 C 170.988281 255.523438 169.390625 255.027344 167.816406 254.464844 C 166.238281 253.902344 164.6875 253.273438 163.167969 252.578125 C 161.644531 251.882812 160.152344 251.125 158.695312 250.300781 C 157.238281 249.480469 155.816406 248.59375 154.4375 247.652344 C 153.054688 246.707031 151.714844 245.703125 150.417969 244.644531 C 149.121094 243.585938 147.875 242.472656 146.671875 241.304688 C 145.472656 240.140625 144.324219 238.925781 143.226562 237.660156 C 142.132812 236.394531 141.089844 235.085938 140.105469 233.730469 C 139.121094 232.378906 138.199219 230.984375 137.332031 229.550781 C 136.46875 228.117188 135.664062 226.648438 134.925781 225.148438 C 134.1875 223.644531 133.515625 222.117188 132.90625 220.554688 C 132.296875 218.996094 131.757812 217.414062 131.285156 215.808594 C 130.8125 214.203125 130.410156 212.578125 130.078125 210.9375 L 24.984375 210.9375 L 32.484375 270.984375 C 32.574219 271.6875 32.722656 272.378906 32.9375 273.054688 C 33.148438 273.730469 33.421875 274.382812 33.753906 275.007812 C 34.085938 275.636719 34.46875 276.226562 34.910156 276.785156 C 35.347656 277.339844 35.832031 277.855469 36.363281 278.324219 C 36.898438 278.792969 37.464844 279.207031 38.074219 279.574219 C 38.683594 279.941406 39.316406 280.246094 39.980469 280.496094 C 40.644531 280.746094 41.324219 280.9375 42.023438 281.0625 C 42.71875 281.1875 43.421875 281.25 44.132812 281.25 L 330.867188 281.25 C 331.574219 281.25 332.277344 281.1875 332.972656 281.058594 C 333.671875 280.929688 334.351562 280.742188 335.011719 280.492188 C 335.675781 280.242188 336.308594 279.933594 336.914062 279.566406 C 337.519531 279.199219 338.089844 278.785156 338.621094 278.316406 C 339.152344 277.847656 339.636719 277.335938 340.074219 276.777344 C 340.511719 276.222656 340.894531 275.628906 341.226562 275.003906 C 341.558594 274.378906 341.828125 273.726562 342.042969 273.050781 C 342.253906 272.375 342.40625 271.6875 342.492188 270.984375 L 349.992188 210.9375 Z M 89.273438 83.507812 C 90.921875 81.449219 92.777344 79.597656 94.839844 77.957031 C 96.90625 76.3125 99.125 74.921875 101.503906 73.777344 C 103.882812 72.636719 106.355469 71.773438 108.929688 71.1875 C 111.5 70.601562 114.105469 70.3125 116.742188 70.3125 L 258.257812 70.3125 C 260.894531 70.3125 263.5 70.601562 266.070312 71.1875 C 268.644531 71.773438 271.117188 72.636719 273.496094 73.777344 C 275.875 74.921875 278.09375 76.3125 280.160156 77.957031 C 282.222656 79.597656 284.078125 81.449219 285.726562 83.507812 L 372.445312 191.90625 C 373.429688 193.140625 374.136719 194.519531 374.5625 196.039062 C 374.988281 197.5625 375.105469 199.105469 374.90625 200.671875 L 365.765625 273.890625 C 365.632812 274.941406 365.457031 275.988281 365.230469 277.023438 C 365.003906 278.058594 364.730469 279.082031 364.414062 280.09375 C 364.09375 281.105469 363.730469 282.101562 363.320312 283.078125 C 362.914062 284.058594 362.460938 285.015625 361.964844 285.953125 C 361.46875 286.890625 360.933594 287.804688 360.355469 288.695312 C 359.777344 289.582031 359.160156 290.445312 358.503906 291.277344 C 357.847656 292.109375 357.15625 292.914062 356.429688 293.683594 C 355.699219 294.453125 354.9375 295.191406 354.140625 295.890625 C 353.347656 296.59375 352.523438 297.257812 351.667969 297.882812 C 350.8125 298.511719 349.929688 299.097656 349.023438 299.644531 C 348.113281 300.191406 347.183594 300.699219 346.226562 301.160156 C 345.273438 301.625 344.300781 302.042969 343.308594 302.417969 C 342.316406 302.792969 341.308594 303.121094 340.289062 303.40625 C 339.265625 303.6875 338.234375 303.925781 337.191406 304.117188 C 336.148438 304.308594 335.097656 304.449219 334.042969 304.546875 C 332.984375 304.640625 331.925781 304.6875 330.867188 304.6875 L 44.132812 304.6875 C 43.074219 304.6875 42.015625 304.640625 40.957031 304.546875 C 39.902344 304.449219 38.851562 304.308594 37.808594 304.117188 C 36.765625 303.925781 35.734375 303.6875 34.710938 303.40625 C 33.691406 303.121094 32.683594 302.792969 31.691406 302.417969 C 30.699219 302.042969 29.726562 301.625 28.773438 301.160156 C 27.816406 300.699219 26.886719 300.191406 25.976562 299.644531 C 25.070312 299.097656 24.1875 298.511719 23.332031 297.882812 C 22.476562 297.257812 21.652344 296.59375 20.855469 295.890625 C 20.0625 295.191406 19.300781 294.453125 18.570312 293.683594 C 17.84375 292.914062 17.152344 292.109375 16.496094 291.277344 C 15.839844 290.445312 15.222656 289.582031 14.644531 288.695312 C 14.066406 287.804688 13.53125 286.890625 13.035156 285.953125 C 12.539062 285.015625 12.085938 284.058594 11.679688 283.078125 C 11.269531 282.101562 10.90625 281.105469 10.585938 280.09375 C 10.269531 279.082031 9.996094 278.058594 9.769531 277.023438 C 9.542969 275.988281 9.367188 274.941406 9.234375 273.890625 L 0.09375 200.671875 C -0.101562 199.101562 0.0195312 197.558594 0.449219 196.039062 C 0.878906 194.515625 1.589844 193.140625 2.578125 191.90625 L 89.296875 83.507812 Z M 89.273438 83.507812 "/>
</g>
</svg>
