<?xml version="1.0" encoding="UTF-8"?>
<svg xmlns="http://www.w3.org/2000/svg" xmlns:xlink="http://www.w3.org/1999/xlink" width="375pt" height="374.999991pt" viewBox="0 0 375 374.999991" version="1.2">
<g id="surface1">
<path style=" stroke:none;fill-rule:nonzero;fill:rgb(14.509583%,39.219666%,65.489197%);fill-opacity:1;" d="M 209.554688 10.195312 C 207.863281 9.292969 206.125 8.5 204.335938 7.8125 C 202.546875 7.121094 200.726562 6.546875 198.867188 6.082031 C 197.007812 5.617188 195.128906 5.269531 193.226562 5.035156 C 191.324219 4.800781 189.414062 4.683594 187.5 4.683594 C 185.585938 4.683594 183.675781 4.800781 181.773438 5.035156 C 179.871094 5.269531 177.992188 5.617188 176.132812 6.082031 C 174.273438 6.546875 172.453125 7.121094 170.664062 7.8125 C 168.875 8.5 167.136719 9.292969 165.445312 10.195312 L 24.820312 85.195312 C 22.953125 86.191406 21.164062 87.304688 19.449219 88.542969 C 17.734375 89.78125 16.109375 91.125 14.578125 92.582031 C 13.046875 94.039062 11.617188 95.59375 10.296875 97.242188 C 8.972656 98.894531 7.769531 100.625 6.679688 102.4375 C 5.59375 104.25 4.632812 106.128906 3.796875 108.074219 C 2.964844 110.015625 2.265625 112.007812 1.703125 114.046875 C 1.136719 116.085938 0.710938 118.152344 0.425781 120.246094 C 0.140625 122.34375 0 124.449219 0 126.5625 L 0 133.898438 L 157.242188 226.078125 L 187.5 209.25 L 217.757812 226.054688 L 375 133.945312 L 375 126.5625 C 375 124.449219 374.859375 122.34375 374.574219 120.246094 C 374.289062 118.152344 373.863281 116.085938 373.300781 114.046875 C 372.734375 112.007812 372.035156 110.019531 371.203125 108.074219 C 370.367188 106.132812 369.40625 104.253906 368.320312 102.441406 C 367.230469 100.628906 366.027344 98.894531 364.703125 97.246094 C 363.382812 95.59375 361.953125 94.042969 360.421875 92.585938 C 358.890625 91.128906 357.265625 89.78125 355.550781 88.542969 C 353.835938 87.304688 352.046875 86.191406 350.179688 85.195312 Z M 375 161.085938 L 241.570312 239.296875 L 375 313.40625 L 375 161.0625 Z M 373.617188 339.46875 L 187.5 236.0625 L 1.382812 339.46875 C 1.695312 340.726562 2.0625 341.96875 2.476562 343.195312 C 2.894531 344.421875 3.359375 345.628906 3.878906 346.820312 C 4.394531 348.007812 4.957031 349.171875 5.574219 350.3125 C 6.1875 351.457031 6.84375 352.570312 7.550781 353.65625 C 8.257812 354.742188 9.007812 355.800781 9.800781 356.824219 C 10.59375 357.847656 11.429688 358.839844 12.304688 359.792969 C 13.179688 360.75 14.09375 361.667969 15.046875 362.546875 C 15.996094 363.425781 16.984375 364.265625 18.007812 365.0625 C 19.027344 365.863281 20.082031 366.617188 21.164062 367.328125 C 22.25 368.035156 23.359375 368.703125 24.5 369.320312 C 25.640625 369.9375 26.804688 370.507812 27.988281 371.03125 C 29.175781 371.550781 30.382812 372.023438 31.609375 372.445312 C 32.835938 372.867188 34.074219 373.238281 35.332031 373.558594 C 36.589844 373.875 37.855469 374.144531 39.136719 374.355469 C 40.414062 374.570312 41.699219 374.730469 42.992188 374.839844 C 44.285156 374.945312 45.578125 375 46.875 375 L 328.125 375 C 329.421875 375 330.714844 374.945312 332.007812 374.839844 C 333.300781 374.734375 334.585938 374.574219 335.863281 374.359375 C 337.140625 374.144531 338.410156 373.878906 339.664062 373.558594 C 340.921875 373.242188 342.164062 372.871094 343.386719 372.449219 C 344.613281 372.027344 345.820312 371.554688 347.007812 371.035156 C 348.191406 370.511719 349.355469 369.941406 350.496094 369.324219 C 351.632812 368.703125 352.746094 368.039062 353.832031 367.328125 C 354.914062 366.621094 355.96875 365.867188 356.988281 365.066406 C 358.011719 364.269531 358.996094 363.429688 359.949219 362.550781 C 360.902344 361.671875 361.816406 360.753906 362.691406 359.796875 C 363.566406 358.84375 364.402344 357.851562 365.195312 356.828125 C 365.988281 355.800781 366.738281 354.746094 367.445312 353.660156 C 368.152344 352.574219 368.8125 351.457031 369.425781 350.316406 C 370.039062 349.175781 370.605469 348.007812 371.121094 346.820312 C 371.636719 345.632812 372.105469 344.425781 372.519531 343.195312 C 372.9375 341.96875 373.304688 340.726562 373.617188 339.46875 Z M 0 313.429688 L 133.429688 239.296875 L 0 161.085938 Z M 0 313.429688 "/>
</g>
</svg>
