<?xml version="1.0" encoding="UTF-8"?>
<svg xmlns="http://www.w3.org/2000/svg" xmlns:xlink="http://www.w3.org/1999/xlink" width="375pt" height="374.999991pt" viewBox="0 0 375 374.999991" version="1.2">
<g id="surface1">
<path style=" stroke:none;fill-rule:nonzero;fill:rgb(14.509583%,39.219666%,65.489197%);fill-opacity:1;" d="M 0 93.75 C 0 92.214844 0.0742188 90.683594 0.226562 89.15625 C 0.375 87.628906 0.601562 86.109375 0.902344 84.605469 C 1.199219 83.097656 1.574219 81.613281 2.019531 80.144531 C 2.464844 78.671875 2.980469 77.230469 3.566406 75.8125 C 4.15625 74.394531 4.8125 73.007812 5.535156 71.652344 C 6.257812 70.300781 7.046875 68.984375 7.898438 67.707031 C 8.753906 66.429688 9.667969 65.199219 10.640625 64.011719 C 11.613281 62.824219 12.644531 61.691406 13.730469 60.605469 C 14.816406 59.519531 15.949219 58.488281 17.136719 57.515625 C 18.324219 56.542969 19.554688 55.628906 20.832031 54.773438 C 22.109375 53.921875 23.425781 53.132812 24.777344 52.410156 C 26.132812 51.6875 27.519531 51.03125 28.9375 50.441406 C 30.355469 49.855469 31.796875 49.339844 33.269531 48.894531 C 34.738281 48.449219 36.222656 48.074219 37.730469 47.777344 C 39.234375 47.476562 40.753906 47.25 42.28125 47.101562 C 43.808594 46.949219 45.339844 46.875 46.875 46.875 L 328.125 46.875 C 329.660156 46.875 331.191406 46.949219 332.71875 47.101562 C 334.246094 47.25 335.765625 47.476562 337.269531 47.777344 C 338.777344 48.074219 340.261719 48.449219 341.730469 48.894531 C 343.199219 49.339844 344.644531 49.855469 346.0625 50.441406 C 347.480469 51.03125 348.867188 51.6875 350.222656 52.410156 C 351.574219 53.132812 352.890625 53.921875 354.167969 54.773438 C 355.445312 55.628906 356.675781 56.542969 357.863281 57.515625 C 359.050781 58.488281 360.183594 59.519531 361.269531 60.605469 C 362.355469 61.691406 363.386719 62.824219 364.359375 64.011719 C 365.332031 65.199219 366.246094 66.429688 367.101562 67.707031 C 367.953125 68.984375 368.742188 70.300781 369.464844 71.652344 C 370.1875 73.007812 370.84375 74.394531 371.433594 75.8125 C 372.019531 77.230469 372.535156 78.671875 372.980469 80.144531 C 373.425781 81.613281 373.800781 83.097656 374.097656 84.605469 C 374.398438 86.109375 374.625 87.628906 374.773438 89.15625 C 374.925781 90.683594 375 92.214844 375 93.75 L 375 281.25 C 375 282.785156 374.925781 284.316406 374.773438 285.84375 C 374.625 287.371094 374.398438 288.890625 374.097656 290.394531 C 373.800781 291.902344 373.425781 293.386719 372.980469 294.855469 C 372.535156 296.324219 372.019531 297.769531 371.433594 299.1875 C 370.84375 300.605469 370.1875 301.992188 369.464844 303.347656 C 368.742188 304.699219 367.953125 306.015625 367.101562 307.292969 C 366.246094 308.570312 365.332031 309.800781 364.359375 310.988281 C 363.386719 312.175781 362.355469 313.308594 361.269531 314.394531 C 360.183594 315.480469 359.050781 316.511719 357.863281 317.484375 C 356.675781 318.457031 355.445312 319.371094 354.167969 320.226562 C 352.890625 321.078125 351.574219 321.867188 350.222656 322.589844 C 348.867188 323.3125 347.480469 323.96875 346.0625 324.558594 C 344.644531 325.144531 343.199219 325.660156 341.730469 326.105469 C 340.261719 326.550781 338.777344 326.925781 337.269531 327.222656 C 335.765625 327.523438 334.246094 327.75 332.71875 327.898438 C 331.191406 328.050781 329.660156 328.125 328.125 328.125 L 46.875 328.125 C 45.339844 328.125 43.808594 328.050781 42.28125 327.898438 C 40.753906 327.75 39.234375 327.523438 37.730469 327.222656 C 36.222656 326.925781 34.738281 326.550781 33.269531 326.105469 C 31.796875 325.660156 30.355469 325.144531 28.9375 324.558594 C 27.519531 323.96875 26.132812 323.3125 24.777344 322.589844 C 23.425781 321.867188 22.109375 321.078125 20.832031 320.226562 C 19.554688 319.371094 18.324219 318.457031 17.136719 317.484375 C 15.949219 316.511719 14.816406 315.480469 13.730469 314.394531 C 12.644531 313.308594 11.613281 312.175781 10.640625 310.988281 C 9.667969 309.800781 8.753906 308.570312 7.898438 307.292969 C 7.046875 306.015625 6.257812 304.699219 5.535156 303.347656 C 4.8125 301.992188 4.15625 300.605469 3.566406 299.1875 C 2.980469 297.769531 2.464844 296.324219 2.019531 294.855469 C 1.574219 293.386719 1.199219 291.902344 0.902344 290.394531 C 0.601562 288.890625 0.375 287.371094 0.226562 285.84375 C 0.0742188 284.316406 0 282.785156 0 281.25 Z M 46.875 70.3125 C 46.105469 70.3125 45.339844 70.351562 44.578125 70.425781 C 43.8125 70.5 43.054688 70.613281 42.300781 70.761719 C 41.550781 70.914062 40.804688 71.097656 40.070312 71.320312 C 39.335938 71.542969 38.613281 71.804688 37.90625 72.097656 C 37.195312 72.390625 36.503906 72.71875 35.828125 73.078125 C 35.148438 73.441406 34.492188 73.835938 33.855469 74.261719 C 33.214844 74.6875 32.601562 75.144531 32.007812 75.632812 C 31.414062 76.121094 30.84375 76.632812 30.300781 77.175781 C 29.757812 77.71875 29.246094 78.289062 28.757812 78.882812 C 28.269531 79.476562 27.8125 80.089844 27.386719 80.730469 C 26.960938 81.367188 26.566406 82.023438 26.203125 82.703125 C 25.84375 83.378906 25.515625 84.070312 25.222656 84.78125 C 24.929688 85.488281 24.667969 86.210938 24.445312 86.945312 C 24.222656 87.679688 24.039062 88.425781 23.886719 89.175781 C 23.738281 89.929688 23.625 90.6875 23.550781 91.453125 C 23.476562 92.214844 23.4375 92.980469 23.4375 93.75 L 23.4375 98.835938 L 187.5 197.273438 L 351.5625 98.835938 L 351.5625 93.75 C 351.5625 92.980469 351.523438 92.214844 351.449219 91.453125 C 351.375 90.6875 351.261719 89.929688 351.113281 89.175781 C 350.960938 88.425781 350.777344 87.679688 350.554688 86.945312 C 350.332031 86.210938 350.070312 85.488281 349.777344 84.78125 C 349.484375 84.070312 349.15625 83.378906 348.796875 82.703125 C 348.433594 82.023438 348.039062 81.367188 347.613281 80.730469 C 347.1875 80.089844 346.730469 79.476562 346.242188 78.882812 C 345.753906 78.289062 345.242188 77.71875 344.699219 77.175781 C 344.15625 76.632812 343.585938 76.121094 342.992188 75.632812 C 342.398438 75.144531 341.785156 74.6875 341.144531 74.261719 C 340.507812 73.835938 339.851562 73.441406 339.171875 73.078125 C 338.496094 72.71875 337.804688 72.390625 337.09375 72.097656 C 336.386719 71.804688 335.664062 71.542969 334.929688 71.320312 C 334.195312 71.097656 333.449219 70.914062 332.699219 70.761719 C 331.945312 70.613281 331.1875 70.5 330.421875 70.425781 C 329.660156 70.351562 328.894531 70.3125 328.125 70.3125 Z M 351.5625 126.164062 L 240.046875 193.078125 L 351.5625 260.484375 Z M 350.765625 287.367188 L 217.289062 206.71875 L 187.5 224.601562 L 157.6875 206.71875 L 24.234375 287.34375 C 24.566406 288.578125 25 289.78125 25.527344 290.945312 C 26.058594 292.113281 26.679688 293.226562 27.390625 294.289062 C 28.105469 295.355469 28.898438 296.355469 29.773438 297.289062 C 30.648438 298.222656 31.597656 299.078125 32.613281 299.855469 C 33.628906 300.632812 34.703125 301.324219 35.832031 301.929688 C 36.960938 302.53125 38.132812 303.039062 39.34375 303.449219 C 40.558594 303.859375 41.796875 304.167969 43.058594 304.375 C 44.324219 304.585938 45.59375 304.6875 46.875 304.6875 L 328.125 304.6875 C 329.40625 304.6875 330.675781 304.585938 331.9375 304.378906 C 333.199219 304.171875 334.4375 303.863281 335.652344 303.453125 C 336.863281 303.042969 338.035156 302.535156 339.164062 301.933594 C 340.292969 301.332031 341.363281 300.640625 342.382812 299.863281 C 343.398438 299.085938 344.34375 298.234375 345.21875 297.300781 C 346.097656 296.367188 346.890625 295.371094 347.605469 294.308594 C 348.316406 293.246094 348.9375 292.132812 349.46875 290.964844 C 350 289.800781 350.433594 288.601562 350.765625 287.367188 Z M 23.4375 260.484375 L 134.953125 193.078125 L 23.4375 126.164062 Z M 23.4375 260.484375 "/>
</g>
</svg>
