<?xml version="1.0" encoding="UTF-8"?>
<svg xmlns="http://www.w3.org/2000/svg" xmlns:xlink="http://www.w3.org/1999/xlink" width="375pt" height="374.999991pt" viewBox="0 0 375 374.999991" version="1.2">
<g id="surface1">
<path style=" stroke:none;fill-rule:evenodd;fill:rgb(14.509583%,39.219666%,65.489197%);fill-opacity:1;" d="M 44.179688 11.976562 C 45.203125 10.957031 46.277344 9.992188 47.398438 9.085938 C 48.523438 8.175781 49.695312 7.332031 50.90625 6.550781 C 52.121094 5.765625 53.375 5.050781 54.664062 4.398438 C 55.953125 3.75 57.273438 3.167969 58.625 2.65625 C 59.976562 2.148438 61.351562 1.710938 62.75 1.34375 C 64.148438 0.980469 65.5625 0.691406 66.992188 0.476562 C 68.417969 0.261719 69.855469 0.121094 71.296875 0.0585938 C 72.742188 -0.00390625 74.183594 0.0078125 75.625 0.0976562 C 77.070312 0.1875 78.5 0.355469 79.925781 0.597656 C 81.351562 0.839844 82.757812 1.15625 84.148438 1.546875 C 85.539062 1.9375 86.90625 2.402344 88.246094 2.9375 C 89.589844 3.472656 90.898438 4.078125 92.175781 4.753906 C 93.453125 5.425781 94.691406 6.167969 95.890625 6.972656 C 97.089844 7.78125 98.242188 8.648438 99.351562 9.574219 C 100.457031 10.503906 101.511719 11.488281 102.515625 12.527344 C 103.519531 13.566406 104.464844 14.65625 105.351562 15.796875 L 147.421875 69.84375 C 155.132812 79.757812 157.851562 92.671875 154.804688 104.859375 L 141.984375 156.1875 C 141.652344 157.515625 141.496094 158.867188 141.511719 160.234375 C 141.53125 161.605469 141.722656 162.949219 142.089844 164.269531 C 142.453125 165.589844 142.980469 166.84375 143.671875 168.027344 C 144.359375 169.210938 145.1875 170.289062 146.15625 171.257812 L 203.742188 228.84375 C 204.714844 229.8125 205.792969 230.644531 206.976562 231.335938 C 208.164062 232.023438 209.417969 232.550781 210.738281 232.917969 C 212.0625 233.285156 213.410156 233.476562 214.78125 233.492188 C 216.152344 233.507812 217.503906 233.347656 218.835938 233.015625 L 270.140625 220.195312 C 273.148438 219.445312 276.199219 219.039062 279.300781 218.980469 C 282.398438 218.921875 285.464844 219.214844 288.5 219.855469 C 291.53125 220.492188 294.453125 221.464844 297.265625 222.769531 C 300.078125 224.074219 302.707031 225.675781 305.15625 227.578125 L 359.203125 269.625 C 378.632812 284.742188 380.414062 313.453125 363.023438 330.820312 L 338.789062 355.054688 C 321.445312 372.398438 295.523438 380.015625 271.359375 371.507812 C 255.945312 366.085938 240.886719 359.816406 226.175781 352.703125 C 211.464844 345.589844 197.199219 337.675781 183.378906 328.960938 C 169.558594 320.246094 156.265625 310.785156 143.507812 300.578125 C 130.75 290.371094 118.601562 279.484375 107.0625 267.914062 C 95.492188 256.378906 84.605469 244.230469 74.398438 231.472656 C 64.195312 218.714844 54.734375 205.429688 46.019531 191.609375 C 37.304688 177.789062 29.390625 163.527344 22.277344 148.820312 C 15.160156 134.109375 8.894531 119.050781 3.46875 103.640625 C -5.015625 79.5 2.601562 53.554688 19.945312 36.210938 Z M 44.179688 11.976562 "/>
</g>
</svg>
