<?xml version="1.0" encoding="UTF-8"?>
<svg xmlns="http://www.w3.org/2000/svg" xmlns:xlink="http://www.w3.org/1999/xlink" width="375pt" height="374.999991pt" viewBox="0 0 375 374.999991" version="1.2">
<g id="surface1">
<path style=" stroke:none;fill-rule:nonzero;fill:rgb(14.509583%,39.219666%,65.489197%);fill-opacity:1;" d="M 257.8125 23.4375 C 258.582031 23.4375 259.347656 23.476562 260.109375 23.550781 C 260.875 23.625 261.632812 23.738281 262.386719 23.886719 C 263.136719 24.039062 263.882812 24.222656 264.617188 24.445312 C 265.351562 24.667969 266.074219 24.929688 266.78125 25.222656 C 267.492188 25.515625 268.183594 25.84375 268.859375 26.203125 C 269.539062 26.566406 270.195312 26.960938 270.832031 27.386719 C 271.472656 27.8125 272.085938 28.269531 272.679688 28.757812 C 273.273438 29.246094 273.84375 29.757812 274.386719 30.300781 C 274.929688 30.84375 275.441406 31.414062 275.929688 32.007812 C 276.417969 32.601562 276.875 33.214844 277.300781 33.855469 C 277.726562 34.492188 278.121094 35.148438 278.484375 35.828125 C 278.84375 36.503906 279.171875 37.195312 279.464844 37.90625 C 279.757812 38.613281 280.019531 39.335938 280.242188 40.070312 C 280.464844 40.804688 280.648438 41.550781 280.800781 42.300781 C 280.949219 43.054688 281.0625 43.8125 281.136719 44.578125 C 281.210938 45.339844 281.25 46.105469 281.25 46.875 L 281.25 328.125 C 281.25 328.894531 281.210938 329.660156 281.136719 330.421875 C 281.0625 331.1875 280.949219 331.945312 280.800781 332.699219 C 280.648438 333.449219 280.464844 334.195312 280.242188 334.929688 C 280.019531 335.664062 279.757812 336.386719 279.464844 337.09375 C 279.171875 337.804688 278.84375 338.496094 278.484375 339.171875 C 278.121094 339.851562 277.726562 340.507812 277.300781 341.144531 C 276.875 341.785156 276.417969 342.398438 275.929688 342.992188 C 275.441406 343.585938 274.929688 344.15625 274.386719 344.699219 C 273.84375 345.242188 273.273438 345.753906 272.679688 346.242188 C 272.085938 346.730469 271.472656 347.1875 270.832031 347.613281 C 270.195312 348.039062 269.539062 348.433594 268.859375 348.796875 C 268.183594 349.15625 267.492188 349.484375 266.78125 349.777344 C 266.074219 350.070312 265.351562 350.332031 264.617188 350.554688 C 263.882812 350.777344 263.136719 350.960938 262.386719 351.113281 C 261.632812 351.261719 260.875 351.375 260.109375 351.449219 C 259.347656 351.523438 258.582031 351.5625 257.8125 351.5625 L 117.1875 351.5625 C 116.417969 351.5625 115.652344 351.523438 114.890625 351.449219 C 114.125 351.375 113.367188 351.261719 112.613281 351.113281 C 111.863281 350.960938 111.117188 350.777344 110.382812 350.554688 C 109.648438 350.332031 108.925781 350.070312 108.21875 349.777344 C 107.507812 349.484375 106.816406 349.15625 106.140625 348.796875 C 105.460938 348.433594 104.804688 348.039062 104.167969 347.613281 C 103.527344 347.1875 102.914062 346.730469 102.320312 346.242188 C 101.726562 345.753906 101.15625 345.242188 100.613281 344.699219 C 100.070312 344.15625 99.558594 343.585938 99.070312 342.992188 C 98.582031 342.398438 98.125 341.785156 97.699219 341.144531 C 97.273438 340.507812 96.878906 339.851562 96.515625 339.171875 C 96.15625 338.496094 95.828125 337.804688 95.535156 337.09375 C 95.242188 336.386719 94.980469 335.664062 94.757812 334.929688 C 94.535156 334.195312 94.351562 333.449219 94.199219 332.699219 C 94.050781 331.945312 93.9375 331.1875 93.863281 330.421875 C 93.789062 329.660156 93.75 328.894531 93.75 328.125 L 93.75 46.875 C 93.75 46.105469 93.789062 45.339844 93.863281 44.578125 C 93.9375 43.8125 94.050781 43.054688 94.199219 42.300781 C 94.351562 41.550781 94.535156 40.804688 94.757812 40.070312 C 94.980469 39.335938 95.242188 38.613281 95.535156 37.90625 C 95.828125 37.195312 96.15625 36.503906 96.515625 35.828125 C 96.878906 35.148438 97.273438 34.492188 97.699219 33.855469 C 98.125 33.214844 98.582031 32.601562 99.070312 32.007812 C 99.558594 31.414062 100.070312 30.84375 100.613281 30.300781 C 101.15625 29.757812 101.726562 29.246094 102.320312 28.757812 C 102.914062 28.269531 103.527344 27.8125 104.167969 27.386719 C 104.804688 26.960938 105.460938 26.566406 106.140625 26.203125 C 106.816406 25.84375 107.507812 25.515625 108.21875 25.222656 C 108.925781 24.929688 109.648438 24.667969 110.382812 24.445312 C 111.117188 24.222656 111.863281 24.039062 112.613281 23.886719 C 113.367188 23.738281 114.125 23.625 114.890625 23.550781 C 115.652344 23.476562 116.417969 23.4375 117.1875 23.4375 Z M 117.1875 0 C 115.652344 0 114.121094 0.0742188 112.59375 0.226562 C 111.066406 0.375 109.546875 0.601562 108.042969 0.902344 C 106.535156 1.199219 105.050781 1.574219 103.582031 2.019531 C 102.109375 2.464844 100.667969 2.980469 99.25 3.566406 C 97.832031 4.15625 96.445312 4.8125 95.089844 5.535156 C 93.738281 6.257812 92.421875 7.046875 91.144531 7.898438 C 89.867188 8.753906 88.636719 9.667969 87.449219 10.640625 C 86.261719 11.613281 85.128906 12.644531 84.042969 13.730469 C 82.957031 14.816406 81.925781 15.949219 80.953125 17.136719 C 79.980469 18.324219 79.066406 19.554688 78.210938 20.832031 C 77.359375 22.109375 76.570312 23.425781 75.847656 24.777344 C 75.125 26.132812 74.46875 27.519531 73.878906 28.9375 C 73.292969 30.355469 72.777344 31.796875 72.332031 33.269531 C 71.886719 34.738281 71.511719 36.222656 71.214844 37.730469 C 70.914062 39.234375 70.6875 40.753906 70.539062 42.28125 C 70.386719 43.808594 70.3125 45.339844 70.3125 46.875 L 70.3125 328.125 C 70.3125 329.660156 70.386719 331.191406 70.539062 332.71875 C 70.6875 334.246094 70.914062 335.765625 71.214844 337.269531 C 71.511719 338.777344 71.886719 340.261719 72.332031 341.730469 C 72.777344 343.199219 73.292969 344.644531 73.878906 346.0625 C 74.46875 347.480469 75.125 348.867188 75.847656 350.222656 C 76.570312 351.574219 77.359375 352.890625 78.210938 354.167969 C 79.066406 355.445312 79.980469 356.675781 80.953125 357.863281 C 81.925781 359.050781 82.957031 360.183594 84.042969 361.269531 C 85.128906 362.355469 86.261719 363.386719 87.449219 364.359375 C 88.636719 365.332031 89.867188 366.246094 91.144531 367.101562 C 92.421875 367.953125 93.738281 368.742188 95.089844 369.464844 C 96.445312 370.1875 97.832031 370.84375 99.25 371.433594 C 100.667969 372.019531 102.109375 372.535156 103.582031 372.980469 C 105.050781 373.425781 106.535156 373.800781 108.042969 374.097656 C 109.546875 374.398438 111.066406 374.625 112.59375 374.773438 C 114.121094 374.925781 115.652344 375 117.1875 375 L 257.8125 375 C 259.347656 375 260.878906 374.925781 262.40625 374.773438 C 263.933594 374.625 265.453125 374.398438 266.957031 374.097656 C 268.464844 373.800781 269.949219 373.425781 271.417969 372.980469 C 272.886719 372.535156 274.332031 372.019531 275.75 371.433594 C 277.167969 370.84375 278.554688 370.1875 279.910156 369.464844 C 281.261719 368.742188 282.578125 367.953125 283.855469 367.101562 C 285.132812 366.246094 286.363281 365.332031 287.550781 364.359375 C 288.738281 363.386719 289.871094 362.355469 290.957031 361.269531 C 292.042969 360.183594 293.074219 359.050781 294.046875 357.863281 C 295.019531 356.675781 295.933594 355.445312 296.789062 354.167969 C 297.640625 352.890625 298.429688 351.574219 299.152344 350.222656 C 299.875 348.867188 300.53125 347.480469 301.121094 346.0625 C 301.707031 344.644531 302.222656 343.199219 302.667969 341.730469 C 303.113281 340.261719 303.488281 338.777344 303.785156 337.269531 C 304.085938 335.765625 304.3125 334.246094 304.460938 332.71875 C 304.613281 331.191406 304.6875 329.660156 304.6875 328.125 L 304.6875 46.875 C 304.6875 45.339844 304.613281 43.808594 304.460938 42.28125 C 304.3125 40.753906 304.085938 39.234375 303.785156 37.730469 C 303.488281 36.222656 303.113281 34.738281 302.667969 33.269531 C 302.222656 31.796875 301.707031 30.355469 301.121094 28.9375 C 300.53125 27.519531 299.875 26.132812 299.152344 24.777344 C 298.429688 23.425781 297.640625 22.109375 296.789062 20.832031 C 295.933594 19.554688 295.019531 18.324219 294.046875 17.136719 C 293.074219 15.949219 292.042969 14.816406 290.957031 13.730469 C 289.871094 12.644531 288.738281 11.613281 287.550781 10.640625 C 286.363281 9.667969 285.132812 8.753906 283.855469 7.898438 C 282.578125 7.046875 281.261719 6.257812 279.910156 5.535156 C 278.554688 4.8125 277.167969 4.15625 275.75 3.566406 C 274.332031 2.980469 272.886719 2.464844 271.417969 2.019531 C 269.949219 1.574219 268.464844 1.199219 266.957031 0.902344 C 265.453125 0.601562 263.933594 0.375 262.40625 0.226562 C 260.878906 0.0742188 259.347656 0 257.8125 0 Z M 117.1875 0 "/>
<path style=" stroke:none;fill-rule:nonzero;fill:rgb(14.509583%,39.219666%,65.489197%);fill-opacity:1;" d="M 187.5 328.125 C 188.269531 328.125 189.035156 328.085938 189.796875 328.011719 C 190.5625 327.9375 191.320312 327.824219 192.074219 327.675781 C 192.824219 327.523438 193.570312 327.339844 194.304688 327.117188 C 195.039062 326.894531 195.761719 326.632812 196.46875 326.339844 C 197.179688 326.046875 197.871094 325.71875 198.546875 325.359375 C 199.226562 324.996094 199.882812 324.601562 200.519531 324.175781 C 201.160156 323.75 201.773438 323.292969 202.367188 322.804688 C 202.960938 322.316406 203.53125 321.804688 204.074219 321.261719 C 204.617188 320.71875 205.128906 320.148438 205.617188 319.554688 C 206.105469 318.960938 206.5625 318.347656 206.988281 317.707031 C 207.414062 317.070312 207.808594 316.414062 208.171875 315.734375 C 208.53125 315.058594 208.859375 314.367188 209.152344 313.65625 C 209.445312 312.949219 209.707031 312.226562 209.929688 311.492188 C 210.152344 310.757812 210.335938 310.011719 210.488281 309.261719 C 210.636719 308.507812 210.75 307.75 210.824219 306.984375 C 210.898438 306.222656 210.9375 305.457031 210.9375 304.6875 C 210.9375 303.917969 210.898438 303.152344 210.824219 302.390625 C 210.75 301.625 210.636719 300.867188 210.488281 300.113281 C 210.335938 299.363281 210.152344 298.617188 209.929688 297.882812 C 209.707031 297.148438 209.445312 296.425781 209.152344 295.71875 C 208.859375 295.007812 208.53125 294.316406 208.171875 293.640625 C 207.808594 292.960938 207.414062 292.304688 206.988281 291.667969 C 206.5625 291.027344 206.105469 290.414062 205.617188 289.820312 C 205.128906 289.226562 204.617188 288.65625 204.074219 288.113281 C 203.53125 287.570312 202.960938 287.058594 202.367188 286.570312 C 201.773438 286.082031 201.160156 285.625 200.519531 285.199219 C 199.882812 284.773438 199.226562 284.378906 198.546875 284.015625 C 197.871094 283.65625 197.179688 283.328125 196.46875 283.035156 C 195.761719 282.742188 195.039062 282.480469 194.304688 282.257812 C 193.570312 282.035156 192.824219 281.851562 192.074219 281.699219 C 191.320312 281.550781 190.5625 281.4375 189.796875 281.363281 C 189.035156 281.289062 188.269531 281.25 187.5 281.25 C 186.730469 281.25 185.964844 281.289062 185.203125 281.363281 C 184.4375 281.4375 183.679688 281.550781 182.925781 281.699219 C 182.175781 281.851562 181.429688 282.035156 180.695312 282.257812 C 179.960938 282.480469 179.238281 282.742188 178.53125 283.035156 C 177.820312 283.328125 177.128906 283.65625 176.453125 284.015625 C 175.773438 284.378906 175.117188 284.773438 174.480469 285.199219 C 173.839844 285.625 173.226562 286.082031 172.632812 286.570312 C 172.039062 287.058594 171.46875 287.570312 170.925781 288.113281 C 170.382812 288.65625 169.871094 289.226562 169.382812 289.820312 C 168.894531 290.414062 168.4375 291.027344 168.011719 291.667969 C 167.585938 292.304688 167.191406 292.960938 166.828125 293.640625 C 166.46875 294.316406 166.140625 295.007812 165.847656 295.71875 C 165.554688 296.425781 165.292969 297.148438 165.070312 297.882812 C 164.847656 298.617188 164.664062 299.363281 164.511719 300.113281 C 164.363281 300.867188 164.25 301.625 164.175781 302.390625 C 164.101562 303.152344 164.0625 303.917969 164.0625 304.6875 C 164.0625 305.457031 164.101562 306.222656 164.175781 306.984375 C 164.25 307.75 164.363281 308.507812 164.511719 309.261719 C 164.664062 310.011719 164.847656 310.757812 165.070312 311.492188 C 165.292969 312.226562 165.554688 312.949219 165.847656 313.65625 C 166.140625 314.367188 166.46875 315.058594 166.828125 315.734375 C 167.191406 316.414062 167.585938 317.070312 168.011719 317.707031 C 168.4375 318.347656 168.894531 318.960938 169.382812 319.554688 C 169.871094 320.148438 170.382812 320.71875 170.925781 321.261719 C 171.46875 321.804688 172.039062 322.316406 172.632812 322.804688 C 173.226562 323.292969 173.839844 323.75 174.480469 324.175781 C 175.117188 324.601562 175.773438 324.996094 176.453125 325.359375 C 177.128906 325.71875 177.820312 326.046875 178.53125 326.339844 C 179.238281 326.632812 179.960938 326.894531 180.695312 327.117188 C 181.429688 327.339844 182.175781 327.523438 182.925781 327.675781 C 183.679688 327.824219 184.4375 327.9375 185.203125 328.011719 C 185.964844 328.085938 186.730469 328.125 187.5 328.125 Z M 187.5 328.125 "/>
</g>
</svg>
