<?xml version="1.0" encoding="UTF-8"?>
<svg xmlns="http://www.w3.org/2000/svg" xmlns:xlink="http://www.w3.org/1999/xlink" width="375pt" height="374.999991pt" viewBox="0 0 375 374.999991" version="1.2">
<g id="surface1">
<path style=" stroke:none;fill-rule:nonzero;fill:rgb(14.509583%,39.219666%,65.489197%);fill-opacity:1;" d="M 70.3125 46.875 C 70.3125 45.339844 70.386719 43.808594 70.539062 42.28125 C 70.6875 40.753906 70.914062 39.234375 71.214844 37.730469 C 71.511719 36.222656 71.886719 34.738281 72.332031 33.269531 C 72.777344 31.796875 73.292969 30.355469 73.878906 28.9375 C 74.46875 27.519531 75.125 26.132812 75.847656 24.777344 C 76.570312 23.425781 77.359375 22.109375 78.210938 20.832031 C 79.066406 19.554688 79.980469 18.324219 80.953125 17.136719 C 81.925781 15.949219 82.957031 14.816406 84.042969 13.730469 C 85.128906 12.644531 86.261719 11.613281 87.449219 10.640625 C 88.636719 9.667969 89.867188 8.753906 91.144531 7.898438 C 92.421875 7.046875 93.738281 6.257812 95.089844 5.535156 C 96.445312 4.8125 97.832031 4.15625 99.25 3.566406 C 100.667969 2.980469 102.109375 2.464844 103.582031 2.019531 C 105.050781 1.574219 106.535156 1.199219 108.042969 0.902344 C 109.546875 0.601562 111.066406 0.375 112.59375 0.226562 C 114.121094 0.0742188 115.652344 0 117.1875 0 L 257.8125 0 C 259.347656 0 260.878906 0.0742188 262.40625 0.226562 C 263.933594 0.375 265.453125 0.601562 266.957031 0.902344 C 268.464844 1.199219 269.949219 1.574219 271.417969 2.019531 C 272.886719 2.464844 274.332031 2.980469 275.75 3.566406 C 277.167969 4.15625 278.554688 4.8125 279.910156 5.535156 C 281.261719 6.257812 282.578125 7.046875 283.855469 7.898438 C 285.132812 8.753906 286.363281 9.667969 287.550781 10.640625 C 288.738281 11.613281 289.871094 12.644531 290.957031 13.730469 C 292.042969 14.816406 293.074219 15.949219 294.046875 17.136719 C 295.019531 18.324219 295.933594 19.554688 296.789062 20.832031 C 297.640625 22.109375 298.429688 23.425781 299.152344 24.777344 C 299.875 26.132812 300.53125 27.519531 301.121094 28.9375 C 301.707031 30.355469 302.222656 31.796875 302.667969 33.269531 C 303.113281 34.738281 303.488281 36.222656 303.785156 37.730469 C 304.085938 39.234375 304.3125 40.753906 304.460938 42.28125 C 304.613281 43.808594 304.6875 45.339844 304.6875 46.875 L 304.6875 328.125 C 304.6875 329.660156 304.613281 331.191406 304.460938 332.71875 C 304.3125 334.246094 304.085938 335.765625 303.785156 337.269531 C 303.488281 338.777344 303.113281 340.261719 302.667969 341.730469 C 302.222656 343.199219 301.707031 344.644531 301.121094 346.0625 C 300.53125 347.480469 299.875 348.867188 299.152344 350.222656 C 298.429688 351.574219 297.640625 352.890625 296.789062 354.167969 C 295.933594 355.445312 295.019531 356.675781 294.046875 357.863281 C 293.074219 359.050781 292.042969 360.183594 290.957031 361.269531 C 289.871094 362.355469 288.738281 363.386719 287.550781 364.359375 C 286.363281 365.332031 285.132812 366.246094 283.855469 367.101562 C 282.578125 367.953125 281.261719 368.742188 279.910156 369.464844 C 278.554688 370.1875 277.167969 370.84375 275.75 371.433594 C 274.332031 372.019531 272.886719 372.535156 271.417969 372.980469 C 269.949219 373.425781 268.464844 373.800781 266.957031 374.097656 C 265.453125 374.398438 263.933594 374.625 262.40625 374.773438 C 260.878906 374.925781 259.347656 375 257.8125 375 L 117.1875 375 C 115.652344 375 114.121094 374.925781 112.59375 374.773438 C 111.066406 374.625 109.546875 374.398438 108.042969 374.097656 C 106.535156 373.800781 105.050781 373.425781 103.582031 372.980469 C 102.109375 372.535156 100.667969 372.019531 99.25 371.433594 C 97.832031 370.84375 96.445312 370.1875 95.089844 369.464844 C 93.738281 368.742188 92.421875 367.953125 91.144531 367.101562 C 89.867188 366.246094 88.636719 365.332031 87.449219 364.359375 C 86.261719 363.386719 85.128906 362.355469 84.042969 361.269531 C 82.957031 360.183594 81.925781 359.050781 80.953125 357.863281 C 79.980469 356.675781 79.066406 355.445312 78.210938 354.167969 C 77.359375 352.890625 76.570312 351.574219 75.847656 350.222656 C 75.125 348.867188 74.46875 347.480469 73.878906 346.0625 C 73.292969 344.644531 72.777344 343.199219 72.332031 341.730469 C 71.886719 340.261719 71.511719 338.777344 71.214844 337.269531 C 70.914062 335.765625 70.6875 334.246094 70.539062 332.71875 C 70.386719 331.191406 70.3125 329.660156 70.3125 328.125 Z M 210.9375 304.6875 C 210.9375 303.917969 210.898438 303.152344 210.824219 302.390625 C 210.75 301.625 210.636719 300.867188 210.488281 300.113281 C 210.335938 299.363281 210.152344 298.617188 209.929688 297.882812 C 209.707031 297.148438 209.445312 296.425781 209.152344 295.71875 C 208.859375 295.007812 208.53125 294.316406 208.171875 293.640625 C 207.808594 292.960938 207.414062 292.304688 206.988281 291.667969 C 206.5625 291.027344 206.105469 290.414062 205.617188 289.820312 C 205.128906 289.226562 204.617188 288.65625 204.074219 288.113281 C 203.53125 287.570312 202.960938 287.058594 202.367188 286.570312 C 201.773438 286.082031 201.160156 285.625 200.519531 285.199219 C 199.882812 284.773438 199.226562 284.378906 198.546875 284.015625 C 197.871094 283.65625 197.179688 283.328125 196.46875 283.035156 C 195.761719 282.742188 195.039062 282.480469 194.304688 282.257812 C 193.570312 282.035156 192.824219 281.851562 192.074219 281.699219 C 191.320312 281.550781 190.5625 281.4375 189.796875 281.363281 C 189.035156 281.289062 188.269531 281.25 187.5 281.25 C 186.730469 281.25 185.964844 281.289062 185.203125 281.363281 C 184.4375 281.4375 183.679688 281.550781 182.925781 281.699219 C 182.175781 281.851562 181.429688 282.035156 180.695312 282.257812 C 179.960938 282.480469 179.238281 282.742188 178.53125 283.035156 C 177.820312 283.328125 177.128906 283.65625 176.453125 284.015625 C 175.773438 284.378906 175.117188 284.773438 174.480469 285.199219 C 173.839844 285.625 173.226562 286.082031 172.632812 286.570312 C 172.039062 287.058594 171.46875 287.570312 170.925781 288.113281 C 170.382812 288.65625 169.871094 289.226562 169.382812 289.820312 C 168.894531 290.414062 168.4375 291.027344 168.011719 291.667969 C 167.585938 292.304688 167.191406 292.960938 166.828125 293.640625 C 166.46875 294.316406 166.140625 295.007812 165.847656 295.71875 C 165.554688 296.425781 165.292969 297.148438 165.070312 297.882812 C 164.847656 298.617188 164.664062 299.363281 164.511719 300.113281 C 164.363281 300.867188 164.25 301.625 164.175781 302.390625 C 164.101562 303.152344 164.0625 303.917969 164.0625 304.6875 C 164.0625 305.457031 164.101562 306.222656 164.175781 306.984375 C 164.25 307.75 164.363281 308.507812 164.511719 309.261719 C 164.664062 310.011719 164.847656 310.757812 165.070312 311.492188 C 165.292969 312.226562 165.554688 312.949219 165.847656 313.65625 C 166.140625 314.367188 166.46875 315.058594 166.828125 315.734375 C 167.191406 316.414062 167.585938 317.070312 168.011719 317.707031 C 168.4375 318.347656 168.894531 318.960938 169.382812 319.554688 C 169.871094 320.148438 170.382812 320.71875 170.925781 321.261719 C 171.46875 321.804688 172.039062 322.316406 172.632812 322.804688 C 173.226562 323.292969 173.839844 323.75 174.480469 324.175781 C 175.117188 324.601562 175.773438 324.996094 176.453125 325.359375 C 177.128906 325.71875 177.820312 326.046875 178.53125 326.339844 C 179.238281 326.632812 179.960938 326.894531 180.695312 327.117188 C 181.429688 327.339844 182.175781 327.523438 182.925781 327.675781 C 183.679688 327.824219 184.4375 327.9375 185.203125 328.011719 C 185.964844 328.085938 186.730469 328.125 187.5 328.125 C 188.269531 328.125 189.035156 328.085938 189.796875 328.011719 C 190.5625 327.9375 191.320312 327.824219 192.074219 327.675781 C 192.824219 327.523438 193.570312 327.339844 194.304688 327.117188 C 195.039062 326.894531 195.761719 326.632812 196.46875 326.339844 C 197.179688 326.046875 197.871094 325.71875 198.546875 325.359375 C 199.226562 324.996094 199.882812 324.601562 200.519531 324.175781 C 201.160156 323.75 201.773438 323.292969 202.367188 322.804688 C 202.960938 322.316406 203.53125 321.804688 204.074219 321.261719 C 204.617188 320.71875 205.128906 320.148438 205.617188 319.554688 C 206.105469 318.960938 206.5625 318.347656 206.988281 317.707031 C 207.414062 317.070312 207.808594 316.414062 208.171875 315.734375 C 208.53125 315.058594 208.859375 314.367188 209.152344 313.65625 C 209.445312 312.949219 209.707031 312.226562 209.929688 311.492188 C 210.152344 310.757812 210.335938 310.011719 210.488281 309.261719 C 210.636719 308.507812 210.75 307.75 210.824219 306.984375 C 210.898438 306.222656 210.9375 305.457031 210.9375 304.6875 Z M 210.9375 304.6875 "/>
</g>
</svg>
