<?xml version="1.0" encoding="UTF-8"?>
<svg xmlns="http://www.w3.org/2000/svg" xmlns:xlink="http://www.w3.org/1999/xlink" width="375pt" height="374.999991pt" viewBox="0 0 375 374.999991" version="1.2">
<g id="surface1">
<path style=" stroke:none;fill-rule:nonzero;fill:rgb(100%,100%,100%);fill-opacity:1;" d="M 198.515625 30.890625 C 196.820312 29.988281 195.039062 29.304688 193.175781 28.839844 C 191.3125 28.375 189.421875 28.140625 187.5 28.140625 C 185.578125 28.140625 183.6875 28.375 181.824219 28.839844 C 179.960938 29.304688 178.179688 29.988281 176.484375 30.890625 L 35.859375 105.890625 C 34.925781 106.386719 34.03125 106.945312 33.171875 107.5625 C 32.316406 108.179688 31.503906 108.855469 30.738281 109.582031 C 29.96875 110.308594 29.257812 111.085938 28.59375 111.910156 C 27.933594 112.734375 27.328125 113.601562 26.785156 114.507812 C 26.242188 115.414062 25.761719 116.351562 25.34375 117.320312 C 24.925781 118.292969 24.574219 119.289062 24.292969 120.308594 C 24.007812 121.324219 23.796875 122.359375 23.652344 123.40625 C 23.511719 124.453125 23.4375 125.503906 23.4375 126.5625 L 23.4375 145.734375 L 157.59375 226.945312 L 187.5 208.992188 L 217.40625 226.945312 L 351.5625 145.734375 L 351.5625 126.5625 C 351.5625 125.503906 351.488281 124.453125 351.347656 123.40625 C 351.203125 122.359375 350.992188 121.324219 350.707031 120.308594 C 350.425781 119.289062 350.074219 118.292969 349.65625 117.320312 C 349.238281 116.351562 348.757812 115.414062 348.214844 114.507812 C 347.671875 113.601562 347.066406 112.734375 346.40625 111.910156 C 345.742188 111.085938 345.03125 110.308594 344.261719 109.582031 C 343.496094 108.855469 342.683594 108.179688 341.828125 107.5625 C 340.96875 106.945312 340.074219 106.386719 339.140625 105.890625 Z M 351.5625 173.15625 L 240.140625 240.585938 L 351.5625 307.429688 L 351.5625 173.132812 Z M 350.742188 334.265625 L 187.5 236.320312 L 24.257812 334.289062 C 24.59375 335.519531 25.027344 336.71875 25.558594 337.878906 C 26.089844 339.039062 26.710938 340.148438 27.425781 341.210938 C 28.136719 342.269531 28.929688 343.261719 29.808594 344.191406 C 30.683594 345.121094 31.628906 345.976562 32.640625 346.75 C 33.65625 347.523438 34.730469 348.210938 35.855469 348.8125 C 36.984375 349.414062 38.152344 349.917969 39.363281 350.328125 C 40.574219 350.734375 41.808594 351.042969 43.066406 351.25 C 44.328125 351.457031 45.597656 351.5625 46.875 351.5625 L 328.125 351.5625 C 329.402344 351.5625 330.671875 351.457031 331.933594 351.25 C 333.195312 351.042969 334.429688 350.734375 335.640625 350.324219 C 336.851562 349.914062 338.019531 349.410156 339.148438 348.808594 C 340.273438 348.207031 341.347656 347.519531 342.359375 346.742188 C 343.375 345.964844 344.320312 345.113281 345.195312 344.179688 C 346.074219 343.25 346.867188 342.253906 347.578125 341.195312 C 348.292969 340.132812 348.914062 339.023438 349.445312 337.859375 C 349.976562 336.695312 350.40625 335.5 350.742188 334.265625 Z M 23.4375 307.429688 L 134.859375 240.585938 L 23.4375 173.132812 Z M 165.445312 10.195312 C 167.136719 9.292969 168.875 8.5 170.664062 7.8125 C 172.453125 7.121094 174.273438 6.546875 176.132812 6.082031 C 177.992188 5.617188 179.871094 5.269531 181.773438 5.035156 C 183.675781 4.800781 185.585938 4.683594 187.5 4.683594 C 189.414062 4.683594 191.324219 4.800781 193.226562 5.035156 C 195.128906 5.269531 197.007812 5.617188 198.867188 6.082031 C 200.726562 6.546875 202.546875 7.121094 204.335938 7.8125 C 206.125 8.5 207.863281 9.292969 209.554688 10.195312 L 350.179688 85.195312 C 352.046875 86.191406 353.835938 87.304688 355.550781 88.542969 C 357.265625 89.78125 358.890625 91.125 360.421875 92.582031 C 361.953125 94.039062 363.382812 95.59375 364.703125 97.242188 C 366.027344 98.894531 367.230469 100.625 368.320312 102.4375 C 369.40625 104.25 370.367188 106.128906 371.203125 108.074219 C 372.035156 110.015625 372.734375 112.007812 373.296875 114.046875 C 373.863281 116.085938 374.289062 118.152344 374.574219 120.246094 C 374.859375 122.34375 375 124.449219 375 126.5625 L 375 328.125 C 375 329.660156 374.925781 331.191406 374.773438 332.71875 C 374.625 334.246094 374.398438 335.765625 374.097656 337.269531 C 373.800781 338.777344 373.425781 340.261719 372.980469 341.730469 C 372.535156 343.199219 372.019531 344.644531 371.433594 346.0625 C 370.84375 347.480469 370.1875 348.867188 369.464844 350.222656 C 368.742188 351.574219 367.953125 352.890625 367.101562 354.167969 C 366.246094 355.445312 365.332031 356.675781 364.359375 357.863281 C 363.386719 359.050781 362.355469 360.183594 361.269531 361.269531 C 360.183594 362.355469 359.050781 363.386719 357.863281 364.359375 C 356.675781 365.332031 355.445312 366.246094 354.167969 367.101562 C 352.890625 367.953125 351.574219 368.742188 350.222656 369.464844 C 348.867188 370.1875 347.480469 370.84375 346.0625 371.433594 C 344.644531 372.019531 343.199219 372.535156 341.730469 372.980469 C 340.261719 373.425781 338.777344 373.800781 337.269531 374.097656 C 335.765625 374.398438 334.246094 374.625 332.71875 374.773438 C 331.191406 374.925781 329.660156 375 328.125 375 L 46.875 375 C 45.339844 375 43.808594 374.925781 42.28125 374.773438 C 40.753906 374.625 39.234375 374.398438 37.730469 374.097656 C 36.222656 373.800781 34.738281 373.425781 33.269531 372.980469 C 31.796875 372.535156 30.355469 372.019531 28.9375 371.433594 C 27.519531 370.84375 26.132812 370.1875 24.777344 369.464844 C 23.425781 368.742188 22.109375 367.953125 20.832031 367.101562 C 19.554688 366.246094 18.324219 365.332031 17.136719 364.359375 C 15.949219 363.386719 14.816406 362.355469 13.730469 361.269531 C 12.644531 360.183594 11.613281 359.050781 10.640625 357.863281 C 9.667969 356.675781 8.753906 355.445312 7.898438 354.167969 C 7.046875 352.890625 6.257812 351.574219 5.535156 350.222656 C 4.8125 348.867188 4.15625 347.480469 3.566406 346.0625 C 2.980469 344.644531 2.464844 343.199219 2.019531 341.730469 C 1.574219 340.261719 1.199219 338.777344 0.902344 337.269531 C 0.601562 335.765625 0.375 334.246094 0.226562 332.71875 C 0.0742188 331.191406 0 329.660156 0 328.125 L 0 126.5625 C 0 124.449219 0.140625 122.34375 0.425781 120.246094 C 0.710938 118.152344 1.136719 116.085938 1.699219 114.046875 C 2.265625 112.007812 2.964844 110.019531 3.796875 108.074219 C 4.632812 106.132812 5.59375 104.253906 6.679688 102.441406 C 7.769531 100.628906 8.972656 98.894531 10.296875 97.246094 C 11.617188 95.59375 13.046875 94.042969 14.578125 92.585938 C 16.109375 91.128906 17.734375 89.78125 19.449219 88.542969 C 21.164062 87.304688 22.953125 86.191406 24.820312 85.195312 Z M 165.445312 10.195312 "/>
</g>
</svg>
