<?xml version="1.0" encoding="UTF-8"?>
<svg xmlns="http://www.w3.org/2000/svg" xmlns:xlink="http://www.w3.org/1999/xlink" width="375pt" height="374.999991pt" viewBox="0 0 375 374.999991" version="1.2">
<g id="surface1">
<path style=" stroke:none;fill-rule:nonzero;fill:rgb(100%,100%,100%);fill-opacity:1;" d="M 85.640625 31.125 C 85.296875 30.679688 84.929688 30.257812 84.539062 29.851562 C 84.148438 29.449219 83.738281 29.066406 83.308594 28.703125 C 82.878906 28.34375 82.429688 28.003906 81.960938 27.691406 C 81.496094 27.378906 81.015625 27.089844 80.515625 26.828125 C 80.019531 26.566406 79.511719 26.328125 78.988281 26.121094 C 78.46875 25.914062 77.9375 25.730469 77.394531 25.578125 C 76.851562 25.429688 76.304688 25.304688 75.75 25.210938 C 75.199219 25.117188 74.640625 25.050781 74.078125 25.019531 C 73.519531 24.984375 72.957031 24.976562 72.394531 25.003906 C 71.835938 25.027344 71.277344 25.082031 70.71875 25.164062 C 70.164062 25.25 69.613281 25.363281 69.070312 25.503906 C 68.527344 25.648438 67.992188 25.816406 67.46875 26.015625 C 66.941406 26.214844 66.429688 26.441406 65.925781 26.695312 C 65.425781 26.949219 64.9375 27.230469 64.464844 27.535156 C 63.996094 27.839844 63.539062 28.167969 63.101562 28.523438 C 62.664062 28.875 62.25 29.25 61.851562 29.648438 L 37.617188 53.90625 C 26.296875 65.25 22.125 81.304688 27.070312 95.390625 C 32.183594 109.921875 38.097656 124.117188 44.804688 137.984375 C 51.515625 151.851562 58.976562 165.296875 67.195312 178.328125 C 75.414062 191.355469 84.335938 203.882812 93.957031 215.910156 C 103.582031 227.9375 113.847656 239.390625 124.757812 250.265625 C 135.632812 261.175781 147.085938 271.441406 159.113281 281.066406 C 171.140625 290.6875 183.667969 299.609375 196.695312 307.828125 C 209.726562 316.046875 223.171875 323.507812 237.039062 330.21875 C 250.90625 336.925781 265.101562 342.835938 279.632812 347.953125 C 293.71875 352.898438 309.773438 348.726562 321.117188 337.40625 L 345.351562 313.171875 C 345.75 312.773438 346.125 312.359375 346.476562 311.921875 C 346.832031 311.484375 347.160156 311.027344 347.464844 310.558594 C 347.769531 310.085938 348.050781 309.597656 348.304688 309.097656 C 348.558594 308.59375 348.785156 308.082031 348.984375 307.554688 C 349.183594 307.03125 349.351562 306.496094 349.496094 305.953125 C 349.636719 305.410156 349.75 304.859375 349.835938 304.304688 C 349.917969 303.746094 349.972656 303.1875 349.996094 302.628906 C 350.023438 302.066406 350.015625 301.503906 349.980469 300.945312 C 349.949219 300.382812 349.882812 299.824219 349.789062 299.269531 C 349.695312 298.71875 349.570312 298.167969 349.421875 297.628906 C 349.269531 297.085938 349.085938 296.554688 348.878906 296.035156 C 348.671875 295.511719 348.433594 295.003906 348.171875 294.507812 C 347.910156 294.007812 347.621094 293.527344 347.308594 293.0625 C 346.996094 292.59375 346.65625 292.144531 346.296875 291.714844 C 345.933594 291.285156 345.550781 290.875 345.148438 290.484375 C 344.742188 290.09375 344.320312 289.726562 343.875 289.382812 L 289.804688 247.335938 C 288.855469 246.597656 287.832031 245.976562 286.742188 245.472656 C 285.648438 244.964844 284.515625 244.589844 283.335938 244.34375 C 282.160156 244.09375 280.96875 243.980469 279.765625 244.003906 C 278.5625 244.027344 277.378906 244.183594 276.210938 244.476562 L 224.882812 257.296875 C 223.175781 257.722656 221.449219 258.039062 219.703125 258.242188 C 217.957031 258.445312 216.207031 258.535156 214.449219 258.515625 C 212.691406 258.492188 210.941406 258.355469 209.199219 258.109375 C 207.460938 257.859375 205.742188 257.503906 204.046875 257.03125 C 202.355469 256.5625 200.695312 255.988281 199.078125 255.304688 C 197.457031 254.621094 195.886719 253.835938 194.367188 252.953125 C 192.847656 252.066406 191.394531 251.085938 190 250.015625 C 188.609375 248.941406 187.289062 247.78125 186.046875 246.539062 L 128.484375 188.953125 C 127.238281 187.710938 126.082031 186.394531 125.007812 185 C 123.933594 183.609375 122.953125 182.152344 122.066406 180.632812 C 121.179688 179.117188 120.394531 177.546875 119.710938 175.925781 C 119.023438 174.308594 118.449219 172.648438 117.976562 170.957031 C 117.507812 169.261719 117.148438 167.542969 116.898438 165.800781 C 116.648438 164.0625 116.515625 162.3125 116.492188 160.554688 C 116.46875 158.796875 116.558594 157.042969 116.761719 155.296875 C 116.964844 153.550781 117.277344 151.824219 117.703125 150.117188 L 130.546875 98.789062 C 130.839844 97.621094 130.996094 96.4375 131.019531 95.234375 C 131.042969 94.03125 130.929688 92.839844 130.679688 91.664062 C 130.433594 90.484375 130.058594 89.351562 129.550781 88.257812 C 129.046875 87.167969 128.425781 86.144531 127.6875 85.195312 Z M 44.15625 11.976562 C 45.179688 10.953125 46.253906 9.988281 47.378906 9.078125 C 48.503906 8.171875 49.671875 7.324219 50.886719 6.539062 C 52.101562 5.753906 53.355469 5.035156 54.644531 4.382812 C 55.9375 3.730469 57.257812 3.148438 58.609375 2.636719 C 59.964844 2.125 61.339844 1.6875 62.738281 1.320312 C 64.136719 0.957031 65.554688 0.664062 66.984375 0.449219 C 68.414062 0.234375 69.851562 0.09375 71.296875 0.03125 C 72.738281 -0.03125 74.183594 -0.0195312 75.628906 0.0742188 C 77.070312 0.164062 78.503906 0.328125 79.929688 0.570312 C 81.355469 0.8125 82.765625 1.128906 84.160156 1.523438 C 85.550781 1.914062 86.917969 2.378906 88.261719 2.914062 C 89.605469 3.453125 90.914062 4.058594 92.191406 4.734375 C 93.472656 5.410156 94.710938 6.152344 95.910156 6.957031 C 97.109375 7.765625 98.265625 8.632812 99.371094 9.5625 C 100.480469 10.492188 101.535156 11.480469 102.539062 12.519531 C 103.542969 13.5625 104.488281 14.65625 105.375 15.796875 L 147.421875 69.84375 C 155.132812 79.757812 157.851562 92.671875 154.804688 104.859375 L 141.984375 156.1875 C 141.652344 157.515625 141.496094 158.867188 141.511719 160.234375 C 141.53125 161.605469 141.722656 162.949219 142.089844 164.269531 C 142.453125 165.589844 142.980469 166.84375 143.671875 168.027344 C 144.359375 169.210938 145.1875 170.289062 146.15625 171.257812 L 203.742188 228.84375 C 204.714844 229.8125 205.792969 230.644531 206.976562 231.335938 C 208.164062 232.023438 209.417969 232.550781 210.738281 232.917969 C 212.0625 233.285156 213.410156 233.476562 214.78125 233.492188 C 216.152344 233.507812 217.503906 233.347656 218.835938 233.015625 L 270.140625 220.195312 C 273.148438 219.445312 276.199219 219.039062 279.300781 218.980469 C 282.398438 218.921875 285.464844 219.214844 288.5 219.855469 C 291.53125 220.492188 294.453125 221.464844 297.265625 222.769531 C 300.078125 224.074219 302.707031 225.675781 305.15625 227.578125 L 359.203125 269.625 C 378.632812 284.742188 380.414062 313.453125 363.023438 330.820312 L 338.789062 355.054688 C 321.445312 372.398438 295.523438 380.015625 271.359375 371.507812 C 255.945312 366.085938 240.886719 359.816406 226.175781 352.703125 C 211.464844 345.589844 197.199219 337.675781 183.378906 328.960938 C 169.558594 320.246094 156.265625 310.785156 143.507812 300.578125 C 130.75 290.371094 118.601562 279.484375 107.0625 267.914062 C 95.492188 256.378906 84.605469 244.230469 74.398438 231.472656 C 64.195312 218.714844 54.734375 205.429688 46.019531 191.609375 C 37.304688 177.789062 29.390625 163.527344 22.277344 148.820312 C 15.160156 134.109375 8.894531 119.050781 3.46875 103.640625 C -5.015625 79.5 2.601562 53.554688 19.945312 36.210938 L 44.179688 11.976562 Z M 44.15625 11.976562 "/>
</g>
</svg>
