<?xml version="1.0" encoding="UTF-8"?>
<svg xmlns="http://www.w3.org/2000/svg" xmlns:xlink="http://www.w3.org/1999/xlink" width="375pt" height="374.999991pt" viewBox="0 0 375 374.999991" version="1.2">
<g id="surface1">
<path style=" stroke:none;fill-rule:evenodd;fill:rgb(14.509583%,39.219666%,65.489197%);fill-opacity:1;" d="M 346.007812 1.757812 C 346.855469 2.28125 347.625 2.90625 348.316406 3.628906 C 349.003906 4.347656 349.59375 5.144531 350.078125 6.015625 C 350.566406 6.886719 350.933594 7.808594 351.183594 8.773438 C 351.4375 9.738281 351.5625 10.722656 351.5625 11.71875 L 351.5625 363.28125 C 351.5625 364.050781 351.488281 364.8125 351.335938 365.566406 C 351.1875 366.320312 350.964844 367.054688 350.671875 367.765625 C 350.375 368.476562 350.015625 369.152344 349.585938 369.792969 C 349.160156 370.429688 348.675781 371.023438 348.128906 371.566406 C 347.585938 372.113281 346.992188 372.597656 346.355469 373.023438 C 345.714844 373.453125 345.039062 373.8125 344.328125 374.109375 C 343.617188 374.402344 342.882812 374.625 342.128906 374.773438 C 341.375 374.925781 340.613281 375 339.84375 375 L 269.53125 375 C 268.761719 375 268 374.925781 267.246094 374.773438 C 266.492188 374.625 265.757812 374.402344 265.046875 374.109375 C 264.335938 373.8125 263.660156 373.453125 263.019531 373.023438 C 262.378906 372.597656 261.789062 372.113281 261.246094 371.566406 C 260.699219 371.023438 260.214844 370.429688 259.789062 369.792969 C 259.359375 369.152344 259 368.476562 258.703125 367.765625 C 258.410156 367.054688 258.1875 366.320312 258.039062 365.566406 C 257.886719 364.8125 257.8125 364.050781 257.8125 363.28125 L 257.8125 328.125 L 234.375 328.125 L 234.375 363.28125 C 234.375 364.050781 234.300781 364.8125 234.148438 365.566406 C 234 366.320312 233.777344 367.054688 233.484375 367.765625 C 233.1875 368.476562 232.828125 369.152344 232.398438 369.792969 C 231.972656 370.429688 231.488281 371.023438 230.941406 371.566406 C 230.398438 372.113281 229.804688 372.597656 229.167969 373.023438 C 228.527344 373.453125 227.851562 373.8125 227.140625 374.109375 C 226.429688 374.402344 225.695312 374.625 224.941406 374.773438 C 224.1875 374.925781 223.425781 375 222.65625 375 L 11.71875 375 C 10.949219 375 10.1875 374.925781 9.433594 374.773438 C 8.679688 374.625 7.945312 374.402344 7.234375 374.109375 C 6.523438 373.8125 5.847656 373.453125 5.207031 373.023438 C 4.570312 372.597656 3.976562 372.113281 3.433594 371.566406 C 2.886719 371.023438 2.402344 370.429688 1.976562 369.792969 C 1.546875 369.152344 1.1875 368.476562 0.890625 367.765625 C 0.597656 367.054688 0.375 366.320312 0.226562 365.566406 C 0.0742188 364.8125 0 364.050781 0 363.28125 L 0 234.375 C 0 233.765625 0.046875 233.15625 0.144531 232.554688 C 0.238281 231.949219 0.382812 231.359375 0.570312 230.777344 C 0.757812 230.195312 0.988281 229.632812 1.265625 229.085938 C 1.542969 228.542969 1.859375 228.023438 2.214844 227.527344 C 2.574219 227.03125 2.964844 226.566406 3.398438 226.132812 C 3.828125 225.699219 4.289062 225.300781 4.78125 224.941406 C 5.273438 224.578125 5.789062 224.257812 6.332031 223.976562 C 6.875 223.695312 7.4375 223.457031 8.015625 223.265625 L 140.625 179.0625 L 140.625 105.46875 C 140.625 104.382812 140.773438 103.316406 141.070312 102.269531 C 141.367188 101.222656 141.800781 100.238281 142.371094 99.3125 C 142.945312 98.386719 143.628906 97.558594 144.433594 96.824219 C 145.234375 96.089844 146.121094 95.480469 147.09375 94.992188 L 334.59375 1.242188 C 335.488281 0.792969 336.425781 0.46875 337.402344 0.257812 C 338.378906 0.0507812 339.367188 -0.03125 340.367188 0.015625 C 341.367188 0.0585938 342.34375 0.230469 343.300781 0.523438 C 344.253906 0.820312 345.15625 1.230469 346.007812 1.757812 Z M 140.625 203.765625 L 23.4375 242.8125 L 23.4375 351.5625 L 140.625 351.5625 Z M 164.0625 351.5625 L 210.9375 351.5625 L 210.9375 316.40625 C 210.9375 315.636719 211.011719 314.875 211.164062 314.121094 C 211.3125 313.367188 211.535156 312.632812 211.828125 311.921875 C 212.125 311.210938 212.484375 310.535156 212.914062 309.894531 C 213.339844 309.253906 213.824219 308.664062 214.371094 308.121094 C 214.914062 307.574219 215.503906 307.089844 216.144531 306.664062 C 216.785156 306.234375 217.460938 305.875 218.171875 305.578125 C 218.882812 305.285156 219.617188 305.0625 220.371094 304.914062 C 221.125 304.761719 221.886719 304.6875 222.65625 304.6875 L 269.53125 304.6875 C 270.300781 304.6875 271.0625 304.761719 271.816406 304.914062 C 272.570312 305.0625 273.304688 305.285156 274.015625 305.578125 C 274.726562 305.875 275.402344 306.234375 276.042969 306.664062 C 276.679688 307.089844 277.273438 307.574219 277.816406 308.121094 C 278.363281 308.664062 278.847656 309.253906 279.273438 309.894531 C 279.703125 310.535156 280.0625 311.210938 280.359375 311.921875 C 280.652344 312.632812 280.875 313.367188 281.023438 314.121094 C 281.175781 314.875 281.25 315.636719 281.25 316.40625 L 281.25 351.5625 L 328.125 351.5625 L 328.125 30.679688 L 164.0625 112.710938 Z M 164.0625 351.5625 "/>
<path style=" stroke:none;fill-rule:nonzero;fill:rgb(14.509583%,39.219666%,65.489197%);fill-opacity:1;" d="M 46.875 257.8125 L 70.3125 257.8125 L 70.3125 281.25 L 46.875 281.25 Z M 93.75 257.8125 L 117.1875 257.8125 L 117.1875 281.25 L 93.75 281.25 Z M 46.875 304.6875 L 70.3125 304.6875 L 70.3125 328.125 L 46.875 328.125 Z M 93.75 304.6875 L 117.1875 304.6875 L 117.1875 328.125 L 93.75 328.125 Z M 187.5 210.9375 L 210.9375 210.9375 L 210.9375 234.375 L 187.5 234.375 Z M 234.375 210.9375 L 257.8125 210.9375 L 257.8125 234.375 L 234.375 234.375 Z M 187.5 257.8125 L 210.9375 257.8125 L 210.9375 281.25 L 187.5 281.25 Z M 234.375 257.8125 L 257.8125 257.8125 L 257.8125 281.25 L 234.375 281.25 Z M 281.25 210.9375 L 304.6875 210.9375 L 304.6875 234.375 L 281.25 234.375 Z M 281.25 257.8125 L 304.6875 257.8125 L 304.6875 281.25 L 281.25 281.25 Z M 187.5 164.0625 L 210.9375 164.0625 L 210.9375 187.5 L 187.5 187.5 Z M 234.375 164.0625 L 257.8125 164.0625 L 257.8125 187.5 L 234.375 187.5 Z M 281.25 164.0625 L 304.6875 164.0625 L 304.6875 187.5 L 281.25 187.5 Z M 187.5 117.1875 L 210.9375 117.1875 L 210.9375 140.625 L 187.5 140.625 Z M 234.375 117.1875 L 257.8125 117.1875 L 257.8125 140.625 L 234.375 140.625 Z M 281.25 117.1875 L 304.6875 117.1875 L 304.6875 140.625 L 281.25 140.625 Z M 281.25 70.3125 L 304.6875 70.3125 L 304.6875 93.75 L 281.25 93.75 Z M 281.25 70.3125 "/>
</g>
</svg>
