<?xml version="1.0" encoding="UTF-8"?>
<svg xmlns="http://www.w3.org/2000/svg" xmlns:xlink="http://www.w3.org/1999/xlink" width="375pt" height="374.999991pt" viewBox="0 0 375 374.999991" version="1.2">
<g id="surface1">
<path style=" stroke:none;fill-rule:nonzero;fill:rgb(14.509583%,39.219666%,65.489197%);fill-opacity:1;" d="M 375 188.648438 C 375 84.445312 291.046875 -0.0234375 187.5 -0.0234375 C 83.90625 0 -0.046875 84.445312 -0.046875 188.671875 C -0.046875 282.820312 68.53125 360.867188 158.15625 375.023438 L 158.15625 243.1875 L 110.578125 243.1875 L 110.578125 188.671875 L 158.203125 188.671875 L 158.203125 147.070312 C 158.203125 99.796875 186.210938 73.6875 229.03125 73.6875 C 249.5625 73.6875 271.007812 77.367188 271.007812 77.367188 L 271.007812 123.773438 L 247.359375 123.773438 C 224.085938 123.773438 216.820312 138.328125 216.820312 153.257812 L 216.820312 188.648438 L 268.804688 188.648438 L 260.507812 243.164062 L 216.796875 243.164062 L 216.796875 375 C 306.421875 360.84375 375 282.796875 375 188.648438 Z M 375 188.648438 "/>
</g>
</svg>
