<?xml version="1.0" encoding="UTF-8"?>
<svg xmlns="http://www.w3.org/2000/svg" xmlns:xlink="http://www.w3.org/1999/xlink" width="375pt" height="374.999991pt" viewBox="0 0 375 374.999991" version="1.2">
<g id="surface1">
<path style=" stroke:none;fill-rule:nonzero;fill:rgb(100%,100%,100%);fill-opacity:1;" d="M 318.773438 54.515625 C 314.484375 50.1875 309.996094 46.085938 305.300781 42.203125 C 300.605469 38.320312 295.730469 34.683594 290.671875 31.285156 C 285.617188 27.886719 280.40625 24.75 275.039062 21.871094 C 269.667969 18.988281 264.171875 16.382812 258.546875 14.046875 C 252.917969 11.714844 247.191406 9.664062 241.359375 7.898438 C 235.53125 6.132812 229.628906 4.660156 223.652344 3.480469 C 217.675781 2.300781 211.65625 1.421875 205.59375 0.839844 C 199.527344 0.257812 193.449219 -0.0234375 187.359375 0 C 85.007812 0 1.59375 83.390625 1.5 185.765625 C 1.5 218.554688 10.078125 250.453125 26.273438 278.695312 L 0 375 L 98.53125 349.171875 C 105.320312 352.867188 112.308594 356.125 119.503906 358.945312 C 126.699219 361.769531 134.039062 364.132812 141.53125 366.039062 C 149.019531 367.945312 156.597656 369.382812 164.265625 370.34375 C 171.933594 371.304688 179.632812 371.785156 187.359375 371.789062 L 187.453125 371.789062 C 289.828125 371.789062 373.21875 288.398438 373.3125 185.929688 C 373.316406 179.839844 373.023438 173.761719 372.429688 167.703125 C 371.835938 161.640625 370.945312 155.625 369.757812 149.648438 C 368.570312 143.675781 367.089844 137.777344 365.320312 131.949219 C 363.550781 126.121094 361.496094 120.394531 359.164062 114.769531 C 356.828125 109.144531 354.21875 103.648438 351.34375 98.28125 C 348.464844 92.914062 345.328125 87.703125 341.9375 82.644531 C 338.542969 77.585938 334.910156 72.707031 331.039062 68.007812 C 327.164062 63.308594 323.066406 58.8125 318.75 54.515625 Z M 187.359375 340.335938 C 180.46875 340.339844 173.613281 339.878906 166.785156 338.960938 C 159.957031 338.046875 153.222656 336.675781 146.578125 334.855469 C 139.933594 333.03125 133.441406 330.777344 127.101562 328.085938 C 120.761719 325.390625 114.628906 322.289062 108.703125 318.773438 L 103.078125 315.398438 L 44.625 330.726562 L 60.234375 273.703125 L 56.578125 267.820312 C 52.730469 261.699219 49.328125 255.339844 46.375 248.742188 C 43.425781 242.140625 40.949219 235.367188 38.953125 228.417969 C 36.957031 221.46875 35.460938 214.417969 34.457031 207.257812 C 33.457031 200.097656 32.960938 192.902344 32.976562 185.671875 C 32.976562 100.6875 102.28125 31.359375 187.453125 31.359375 C 192.511719 31.351562 197.5625 31.589844 202.597656 32.078125 C 207.636719 32.570312 212.636719 33.304688 217.597656 34.289062 C 222.5625 35.273438 227.464844 36.496094 232.308594 37.964844 C 237.152344 39.429688 241.910156 41.132812 246.585938 43.070312 C 251.261719 45.007812 255.828125 47.171875 260.289062 49.558594 C 264.753906 51.945312 269.085938 54.550781 273.289062 57.367188 C 277.492188 60.179688 281.550781 63.199219 285.457031 66.414062 C 289.363281 69.628906 293.101562 73.03125 296.671875 76.617188 C 300.253906 80.1875 303.652344 83.929688 306.867188 87.835938 C 310.082031 91.742188 313.09375 95.800781 315.910156 100.003906 C 318.722656 104.207031 321.320312 108.542969 323.707031 113.003906 C 326.089844 117.464844 328.25 122.035156 330.1875 126.707031 C 332.121094 131.382812 333.820312 136.140625 335.285156 140.984375 C 336.746094 145.828125 337.96875 150.730469 338.949219 155.695312 C 339.929688 160.65625 340.664062 165.65625 341.148438 170.691406 C 341.636719 175.730469 341.871094 180.777344 341.859375 185.835938 C 341.765625 271.125 272.460938 340.335938 187.359375 340.335938 Z M 272.085938 224.695312 C 267.46875 222.375 244.664062 211.148438 240.375 209.554688 C 236.109375 208.03125 232.992188 207.234375 229.945312 211.875 C 226.828125 216.492188 217.921875 227.015625 215.25 230.039062 C 212.578125 233.15625 209.8125 233.507812 205.171875 231.210938 C 200.554688 228.867188 185.578125 223.992188 167.859375 208.125 C 154.03125 195.820312 144.773438 180.585938 142.007812 175.96875 C 139.335938 171.328125 141.75 168.84375 144.070312 166.523438 C 146.109375 164.460938 148.6875 161.085938 151.007812 158.414062 C 153.351562 155.742188 154.125 153.773438 155.648438 150.679688 C 157.171875 147.539062 156.445312 144.867188 155.296875 142.546875 C 154.125 140.226562 144.867188 117.328125 140.953125 108.09375 C 137.203125 98.976562 133.382812 100.242188 130.523438 100.125 C 127.851562 99.960938 124.734375 99.960938 121.617188 99.960938 C 120.441406 99.988281 119.277344 100.140625 118.132812 100.410156 C 116.988281 100.679688 115.878906 101.0625 114.8125 101.558594 C 113.746094 102.058594 112.742188 102.660156 111.800781 103.367188 C 110.855469 104.070312 109.996094 104.867188 109.21875 105.75 C 104.953125 110.390625 93.023438 121.617188 93.023438 144.515625 C 93.023438 167.414062 109.664062 189.421875 112.007812 192.539062 C 114.304688 195.65625 144.679688 242.507812 191.296875 262.664062 C 202.3125 267.46875 210.984375 270.304688 217.757812 272.460938 C 228.890625 276.023438 238.945312 275.484375 246.960938 274.335938 C 255.867188 272.976562 274.40625 263.085938 278.320312 252.234375 C 282.164062 241.359375 282.164062 232.078125 280.992188 230.132812 C 279.84375 228.164062 276.726562 227.015625 272.085938 224.695312 Z M 272.085938 224.695312 "/>
</g>
</svg>
