<?xml version="1.0" encoding="UTF-8"?>
<svg xmlns="http://www.w3.org/2000/svg" xmlns:xlink="http://www.w3.org/1999/xlink" width="375pt" height="374.999991pt" viewBox="0 0 375 374.999991" version="1.2">
<g id="surface1">
<path style=" stroke:none;fill-rule:nonzero;fill:rgb(14.509583%,39.219666%,65.489197%);fill-opacity:1;" d="M 187.5 0 C 136.617188 0 130.21875 0.234375 110.226562 1.125 C 90.234375 2.0625 76.617188 5.203125 64.6875 9.84375 C 58.429688 12.195312 52.5 15.199219 46.902344 18.847656 C 41.300781 22.496094 36.15625 26.703125 31.476562 31.476562 C 26.707031 36.160156 22.5 41.304688 18.851562 46.902344 C 15.203125 52.503906 12.199219 58.433594 9.84375 64.6875 C 5.203125 76.59375 2.039062 90.234375 1.125 110.15625 C 0.234375 130.195312 0 136.570312 0 187.523438 C 0 238.429688 0.234375 244.804688 1.125 264.796875 C 2.0625 284.765625 5.203125 298.382812 9.84375 310.3125 C 14.648438 322.640625 21.046875 333.09375 31.476562 343.523438 C 41.882812 353.953125 52.335938 360.375 64.664062 365.15625 C 76.617188 369.796875 90.210938 372.960938 110.179688 373.875 C 130.195312 374.765625 136.570312 375 187.5 375 C 238.429688 375 244.78125 374.765625 264.796875 373.875 C 284.742188 372.9375 298.40625 369.796875 310.335938 365.15625 C 316.589844 362.800781 322.511719 359.800781 328.109375 356.152344 C 333.707031 352.503906 338.84375 348.292969 343.523438 343.523438 C 353.953125 333.09375 360.351562 322.640625 365.15625 310.3125 C 369.773438 298.382812 372.9375 284.765625 373.875 264.796875 C 374.765625 244.804688 375 238.429688 375 187.5 C 375 136.570312 374.765625 130.195312 373.875 110.179688 C 372.9375 90.234375 369.773438 76.59375 365.15625 64.6875 C 362.800781 58.433594 359.796875 52.503906 356.148438 46.902344 C 352.5 41.300781 348.292969 36.160156 343.523438 31.476562 C 338.84375 26.703125 333.703125 22.492188 328.101562 18.84375 C 322.5 15.195312 316.570312 12.195312 310.3125 9.84375 C 298.359375 5.203125 284.71875 2.039062 264.773438 1.125 C 244.757812 0.234375 238.40625 0 187.453125 0 L 187.523438 0 Z M 170.695312 33.796875 L 187.523438 33.796875 C 237.585938 33.796875 243.515625 33.960938 263.273438 34.875 C 281.554688 35.695312 291.492188 38.765625 298.101562 41.320312 C 306.84375 44.71875 313.101562 48.796875 319.664062 55.359375 C 326.226562 61.921875 330.28125 68.15625 333.679688 76.921875 C 336.257812 83.507812 339.304688 93.445312 340.125 111.726562 C 341.039062 131.484375 341.226562 137.414062 341.226562 187.453125 C 341.226562 237.492188 341.039062 243.445312 340.125 263.203125 C 339.304688 281.484375 336.234375 291.398438 333.679688 298.007812 C 332.175781 302.078125 330.242188 305.929688 327.871094 309.566406 C 325.5 313.203125 322.757812 316.527344 319.640625 319.546875 C 313.078125 326.109375 306.84375 330.164062 298.078125 333.5625 C 291.515625 336.140625 281.578125 339.1875 263.273438 340.03125 C 243.515625 340.921875 237.585938 341.132812 187.523438 341.132812 C 137.460938 341.132812 131.507812 340.921875 111.75 340.03125 C 93.46875 339.1875 83.554688 336.140625 76.945312 333.5625 C 72.875 332.0625 69.015625 330.128906 65.378906 327.761719 C 61.738281 325.398438 58.40625 322.660156 55.382812 319.546875 C 52.261719 316.523438 49.515625 313.191406 47.144531 309.554688 C 44.769531 305.914062 42.828125 302.058594 41.320312 297.984375 C 38.765625 291.398438 35.695312 281.460938 34.875 263.179688 C 33.984375 243.421875 33.796875 237.492188 33.796875 187.40625 C 33.796875 137.34375 33.984375 131.4375 34.875 111.679688 C 35.71875 93.398438 38.765625 83.460938 41.34375 76.851562 C 44.742188 68.109375 48.820312 61.851562 55.382812 55.289062 C 61.945312 48.726562 68.179688 44.671875 76.945312 41.273438 C 83.554688 38.695312 93.46875 35.648438 111.75 34.804688 C 129.046875 34.007812 135.75 33.773438 170.695312 33.75 Z M 287.601562 64.921875 C 286.863281 64.921875 286.128906 64.957031 285.394531 65.03125 C 284.664062 65.101562 283.933594 65.210938 283.210938 65.355469 C 282.488281 65.496094 281.773438 65.675781 281.070312 65.890625 C 280.363281 66.105469 279.671875 66.351562 278.992188 66.632812 C 278.308594 66.917969 277.644531 67.230469 276.996094 67.578125 C 276.34375 67.925781 275.714844 68.304688 275.101562 68.714844 C 274.488281 69.125 273.898438 69.5625 273.328125 70.027344 C 272.757812 70.496094 272.210938 70.992188 271.691406 71.511719 C 271.171875 72.03125 270.675781 72.578125 270.207031 73.148438 C 269.742188 73.71875 269.304688 74.308594 268.894531 74.921875 C 268.484375 75.535156 268.105469 76.164062 267.757812 76.816406 C 267.410156 77.464844 267.097656 78.128906 266.8125 78.8125 C 266.53125 79.492188 266.285156 80.183594 266.070312 80.890625 C 265.855469 81.59375 265.675781 82.308594 265.535156 83.03125 C 265.390625 83.753906 265.28125 84.484375 265.210938 85.214844 C 265.136719 85.949219 265.101562 86.683594 265.101562 87.421875 C 265.101562 88.160156 265.136719 88.894531 265.210938 89.628906 C 265.28125 90.359375 265.390625 91.089844 265.535156 91.8125 C 265.675781 92.535156 265.855469 93.25 266.070312 93.953125 C 266.285156 94.660156 266.53125 95.351562 266.8125 96.03125 C 267.097656 96.714844 267.410156 97.378906 267.757812 98.027344 C 268.105469 98.679688 268.484375 99.308594 268.894531 99.921875 C 269.304688 100.535156 269.742188 101.125 270.207031 101.695312 C 270.675781 102.265625 271.171875 102.8125 271.691406 103.332031 C 272.210938 103.851562 272.757812 104.347656 273.328125 104.816406 C 273.898438 105.28125 274.488281 105.71875 275.101562 106.128906 C 275.714844 106.539062 276.34375 106.917969 276.996094 107.265625 C 277.644531 107.613281 278.308594 107.925781 278.992188 108.210938 C 279.671875 108.492188 280.363281 108.738281 281.070312 108.953125 C 281.773438 109.167969 282.488281 109.347656 283.210938 109.488281 C 283.933594 109.632812 284.664062 109.742188 285.394531 109.8125 C 286.128906 109.886719 286.863281 109.921875 287.601562 109.921875 C 288.339844 109.921875 289.074219 109.886719 289.808594 109.8125 C 290.539062 109.742188 291.269531 109.632812 291.992188 109.488281 C 292.714844 109.347656 293.429688 109.167969 294.132812 108.953125 C 294.839844 108.738281 295.53125 108.492188 296.210938 108.210938 C 296.894531 107.925781 297.558594 107.613281 298.207031 107.265625 C 298.859375 106.917969 299.488281 106.539062 300.101562 106.128906 C 300.714844 105.71875 301.304688 105.28125 301.875 104.816406 C 302.445312 104.347656 302.992188 103.851562 303.511719 103.332031 C 304.03125 102.8125 304.527344 102.265625 304.996094 101.695312 C 305.460938 101.125 305.898438 100.535156 306.308594 99.921875 C 306.71875 99.308594 307.097656 98.679688 307.445312 98.027344 C 307.792969 97.378906 308.105469 96.714844 308.390625 96.03125 C 308.671875 95.351562 308.917969 94.660156 309.132812 93.953125 C 309.347656 93.25 309.527344 92.535156 309.667969 91.8125 C 309.8125 91.089844 309.921875 90.359375 309.992188 89.628906 C 310.066406 88.894531 310.101562 88.160156 310.101562 87.421875 C 310.101562 86.683594 310.066406 85.949219 309.992188 85.214844 C 309.921875 84.484375 309.8125 83.753906 309.667969 83.03125 C 309.527344 82.308594 309.347656 81.59375 309.132812 80.890625 C 308.917969 80.183594 308.671875 79.492188 308.390625 78.8125 C 308.105469 78.128906 307.792969 77.464844 307.445312 76.816406 C 307.097656 76.164062 306.71875 75.535156 306.308594 74.921875 C 305.898438 74.308594 305.460938 73.71875 304.996094 73.148438 C 304.527344 72.578125 304.03125 72.03125 303.511719 71.511719 C 302.992188 70.992188 302.445312 70.496094 301.875 70.027344 C 301.304688 69.5625 300.714844 69.125 300.101562 68.714844 C 299.488281 68.304688 298.859375 67.925781 298.207031 67.578125 C 297.558594 67.230469 296.894531 66.917969 296.210938 66.632812 C 295.53125 66.351562 294.839844 66.105469 294.132812 65.890625 C 293.429688 65.675781 292.714844 65.496094 291.992188 65.355469 C 291.269531 65.210938 290.539062 65.101562 289.808594 65.03125 C 289.074219 64.957031 288.339844 64.921875 287.601562 64.921875 Z M 187.523438 91.21875 C 185.933594 91.195312 184.339844 91.207031 182.75 91.261719 C 181.160156 91.316406 179.570312 91.410156 177.984375 91.542969 C 176.398438 91.675781 174.816406 91.847656 173.238281 92.058594 C 171.660156 92.269531 170.089844 92.519531 168.523438 92.808594 C 166.957031 93.097656 165.402344 93.425781 163.851562 93.792969 C 162.304688 94.160156 160.765625 94.5625 159.234375 95.007812 C 157.707031 95.449219 156.191406 95.929688 154.683594 96.449219 C 153.179688 96.964844 151.6875 97.519531 150.210938 98.113281 C 148.734375 98.703125 147.269531 99.332031 145.824219 99.996094 C 144.378906 100.660156 142.949219 101.359375 141.535156 102.097656 C 140.125 102.832031 138.730469 103.601562 137.359375 104.40625 C 135.984375 105.210938 134.632812 106.046875 133.300781 106.917969 C 131.96875 107.789062 130.660156 108.695312 129.371094 109.632812 C 128.085938 110.566406 126.820312 111.535156 125.582031 112.535156 C 124.34375 113.53125 123.128906 114.5625 121.941406 115.621094 C 120.753906 116.679688 119.589844 117.769531 118.457031 118.886719 C 117.324219 120 116.214844 121.144531 115.140625 122.316406 C 114.0625 123.488281 113.011719 124.6875 111.996094 125.910156 C 110.976562 127.132812 109.988281 128.382812 109.035156 129.652344 C 108.078125 130.925781 107.152344 132.222656 106.261719 133.539062 C 105.367188 134.859375 104.511719 136.199219 103.683594 137.558594 C 102.859375 138.917969 102.066406 140.300781 101.308594 141.699219 C 100.554688 143.101562 99.832031 144.519531 99.144531 145.953125 C 98.457031 147.390625 97.804688 148.84375 97.191406 150.3125 C 96.578125 151.777344 96 153.261719 95.457031 154.757812 C 94.914062 156.253906 94.410156 157.765625 93.945312 159.285156 C 93.480469 160.808594 93.050781 162.339844 92.660156 163.882812 C 92.269531 165.425781 91.917969 166.980469 91.605469 168.539062 C 91.289062 170.101562 91.015625 171.667969 90.78125 173.242188 C 90.542969 174.816406 90.347656 176.394531 90.1875 177.980469 C 90.03125 179.5625 89.914062 181.148438 89.835938 182.738281 C 89.753906 184.328125 89.714844 185.921875 89.714844 187.511719 C 89.714844 189.101562 89.753906 190.695312 89.835938 192.285156 C 89.914062 193.875 90.03125 195.460938 90.1875 197.042969 C 90.347656 198.628906 90.542969 200.207031 90.78125 201.78125 C 91.015625 203.355469 91.289062 204.921875 91.605469 206.484375 C 91.917969 208.042969 92.269531 209.597656 92.660156 211.140625 C 93.050781 212.683594 93.480469 214.214844 93.945312 215.738281 C 94.410156 217.257812 94.914062 218.769531 95.457031 220.265625 C 96 221.761719 96.578125 223.246094 97.191406 224.710938 C 97.804688 226.179688 98.457031 227.632812 99.144531 229.070312 C 99.832031 230.503906 100.554688 231.921875 101.308594 233.324219 C 102.066406 234.722656 102.859375 236.105469 103.683594 237.464844 C 104.511719 238.824219 105.367188 240.164062 106.261719 241.484375 C 107.152344 242.800781 108.078125 244.097656 109.035156 245.371094 C 109.988281 246.640625 110.976562 247.890625 111.996094 249.113281 C 113.011719 250.335938 114.0625 251.535156 115.140625 252.707031 C 116.214844 253.878906 117.324219 255.023438 118.457031 256.136719 C 119.589844 257.253906 120.753906 258.34375 121.941406 259.402344 C 123.128906 260.460938 124.34375 261.492188 125.582031 262.488281 C 126.820312 263.488281 128.085938 264.457031 129.371094 265.390625 C 130.660156 266.328125 131.96875 267.234375 133.300781 268.105469 C 134.632812 268.976562 135.984375 269.8125 137.359375 270.617188 C 138.730469 271.421875 140.125 272.191406 141.535156 272.925781 C 142.949219 273.664062 144.378906 274.363281 145.824219 275.027344 C 147.269531 275.691406 148.734375 276.320312 150.210938 276.910156 C 151.6875 277.503906 153.179688 278.058594 154.683594 278.574219 C 156.191406 279.09375 157.707031 279.574219 159.234375 280.015625 C 160.765625 280.460938 162.304688 280.863281 163.851562 281.230469 C 165.402344 281.597656 166.957031 281.925781 168.523438 282.214844 C 170.089844 282.503906 171.660156 282.753906 173.238281 282.964844 C 174.816406 283.175781 176.398438 283.347656 177.984375 283.480469 C 179.570312 283.613281 181.160156 283.707031 182.75 283.761719 C 184.339844 283.816406 185.933594 283.828125 187.523438 283.804688 C 189.082031 283.78125 190.640625 283.71875 192.199219 283.617188 C 193.757812 283.519531 195.3125 283.378906 196.859375 283.203125 C 198.410156 283.027344 199.957031 282.816406 201.496094 282.566406 C 203.039062 282.3125 204.570312 282.027344 206.097656 281.699219 C 207.621094 281.375 209.140625 281.011719 210.648438 280.613281 C 212.15625 280.214844 213.65625 279.78125 215.144531 279.308594 C 216.628906 278.835938 218.105469 278.328125 219.566406 277.785156 C 221.03125 277.242188 222.480469 276.664062 223.914062 276.046875 C 225.347656 275.433594 226.765625 274.785156 228.171875 274.101562 C 229.574219 273.421875 230.957031 272.703125 232.328125 271.953125 C 233.695312 271.203125 235.042969 270.417969 236.375 269.605469 C 237.703125 268.789062 239.015625 267.941406 240.304688 267.0625 C 241.59375 266.179688 242.859375 265.269531 244.105469 264.328125 C 245.347656 263.386719 246.570312 262.417969 247.765625 261.417969 C 248.964844 260.417969 250.136719 259.386719 251.285156 258.332031 C 252.433594 257.273438 253.554688 256.1875 254.648438 255.074219 C 255.742188 253.964844 256.808594 252.828125 257.847656 251.664062 C 258.886719 250.5 259.898438 249.308594 260.878906 248.097656 C 261.863281 246.882812 262.8125 245.648438 263.734375 244.390625 C 264.65625 243.128906 265.546875 241.847656 266.40625 240.546875 C 267.265625 239.242188 268.09375 237.921875 268.886719 236.578125 C 269.683594 235.234375 270.445312 233.875 271.175781 232.496094 C 271.902344 231.113281 272.597656 229.71875 273.257812 228.304688 C 273.921875 226.890625 274.546875 225.460938 275.136719 224.019531 C 275.730469 222.574219 276.285156 221.117188 276.804688 219.644531 C 277.328125 218.175781 277.8125 216.691406 278.261719 215.199219 C 278.707031 213.703125 279.121094 212.199219 279.496094 210.683594 C 279.871094 209.167969 280.210938 207.648438 280.511719 206.117188 C 280.8125 204.585938 281.078125 203.046875 281.304688 201.503906 C 281.53125 199.960938 281.71875 198.410156 281.871094 196.859375 C 282.023438 195.304688 282.136719 193.75 282.210938 192.191406 C 282.289062 190.632812 282.324219 189.070312 282.324219 187.511719 C 282.324219 185.953125 282.289062 184.390625 282.210938 182.832031 C 282.136719 181.273438 282.023438 179.71875 281.871094 178.164062 C 281.71875 176.613281 281.53125 175.0625 281.304688 173.519531 C 281.078125 171.976562 280.8125 170.4375 280.511719 168.90625 C 280.210938 167.375 279.871094 165.855469 279.496094 164.339844 C 279.121094 162.824219 278.707031 161.320312 278.261719 159.824219 C 277.8125 158.332031 277.328125 156.847656 276.804688 155.378906 C 276.285156 153.90625 275.730469 152.449219 275.136719 151.003906 C 274.546875 149.5625 273.921875 148.132812 273.257812 146.71875 C 272.597656 145.304688 271.902344 143.910156 271.175781 142.527344 C 270.445312 141.148438 269.683594 139.789062 268.886719 138.445312 C 268.09375 137.101562 267.265625 135.78125 266.40625 134.476562 C 265.546875 133.175781 264.65625 131.894531 263.734375 130.632812 C 262.8125 129.375 261.863281 128.140625 260.878906 126.925781 C 259.898438 125.714844 258.886719 124.523438 257.847656 123.359375 C 256.808594 122.195312 255.742188 121.058594 254.648438 119.949219 C 253.554688 118.835938 252.433594 117.75 251.285156 116.691406 C 250.136719 115.636719 248.964844 114.605469 247.765625 113.605469 C 246.570312 112.605469 245.347656 111.636719 244.105469 110.695312 C 242.859375 109.753906 241.59375 108.84375 240.304688 107.960938 C 239.015625 107.082031 237.703125 106.234375 236.375 105.417969 C 235.042969 104.605469 233.695312 103.820312 232.328125 103.070312 C 230.957031 102.320312 229.574219 101.601562 228.171875 100.921875 C 226.765625 100.238281 225.347656 99.589844 223.914062 98.976562 C 222.480469 98.359375 221.03125 97.78125 219.566406 97.238281 C 218.105469 96.695312 216.628906 96.1875 215.144531 95.714844 C 213.65625 95.242188 212.15625 94.808594 210.648438 94.410156 C 209.140625 94.011719 207.621094 93.648438 206.097656 93.324219 C 204.570312 92.996094 203.039062 92.710938 201.496094 92.457031 C 199.957031 92.207031 198.410156 91.996094 196.859375 91.820312 C 195.3125 91.644531 193.757812 91.503906 192.199219 91.40625 C 190.640625 91.304688 189.082031 91.242188 187.523438 91.21875 Z M 187.523438 124.992188 C 189.570312 124.992188 191.613281 125.089844 193.652344 125.292969 C 195.691406 125.492188 197.710938 125.789062 199.722656 126.191406 C 201.730469 126.589844 203.714844 127.085938 205.671875 127.679688 C 207.632812 128.273438 209.558594 128.960938 211.449219 129.742188 C 213.34375 130.527344 215.191406 131.402344 216.996094 132.367188 C 218.804688 133.332031 220.558594 134.382812 222.261719 135.519531 C 223.964844 136.65625 225.605469 137.875 227.191406 139.171875 C 228.773438 140.472656 230.289062 141.84375 231.738281 143.292969 C 233.183594 144.742188 234.558594 146.253906 235.859375 147.839844 C 237.15625 149.421875 238.375 151.0625 239.515625 152.765625 C 240.652344 154.46875 241.703125 156.222656 242.667969 158.027344 C 243.632812 159.832031 244.507812 161.683594 245.292969 163.574219 C 246.078125 165.464844 246.765625 167.390625 247.359375 169.351562 C 247.953125 171.308594 248.453125 173.292969 248.851562 175.300781 C 249.25 177.3125 249.550781 179.335938 249.75 181.371094 C 249.953125 183.410156 250.054688 185.453125 250.054688 187.5 C 250.054688 189.546875 249.953125 191.589844 249.75 193.628906 C 249.550781 195.664062 249.25 197.6875 248.851562 199.699219 C 248.453125 201.707031 247.953125 203.691406 247.359375 205.648438 C 246.765625 207.609375 246.078125 209.535156 245.292969 211.425781 C 244.507812 213.316406 243.632812 215.167969 242.667969 216.972656 C 241.703125 218.777344 240.652344 220.53125 239.515625 222.234375 C 238.375 223.9375 237.15625 225.578125 235.859375 227.160156 C 234.558594 228.746094 233.183594 230.257812 231.738281 231.707031 C 230.289062 233.15625 228.773438 234.527344 227.191406 235.828125 C 225.605469 237.125 223.964844 238.34375 222.261719 239.480469 C 220.558594 240.617188 218.804688 241.667969 216.996094 242.632812 C 215.191406 243.597656 213.34375 244.472656 211.449219 245.253906 C 209.558594 246.039062 207.632812 246.726562 205.671875 247.320312 C 203.714844 247.914062 201.730469 248.410156 199.722656 248.808594 C 197.710938 249.210938 195.691406 249.507812 193.652344 249.707031 C 191.613281 249.910156 189.570312 250.007812 187.523438 250.007812 C 185.476562 250.007812 183.433594 249.90625 181.398438 249.707031 C 179.359375 249.507812 177.335938 249.207031 175.328125 248.808594 C 173.320312 248.40625 171.335938 247.910156 169.378906 247.316406 C 167.417969 246.722656 165.492188 246.03125 163.601562 245.25 C 161.710938 244.464844 159.863281 243.59375 158.058594 242.625 C 156.253906 241.660156 154.5 240.609375 152.796875 239.472656 C 151.09375 238.335938 149.453125 237.117188 147.867188 235.820312 C 146.285156 234.519531 144.769531 233.148438 143.324219 231.699219 C 141.875 230.253906 140.503906 228.738281 139.203125 227.15625 C 137.90625 225.570312 136.6875 223.929688 135.550781 222.226562 C 134.414062 220.523438 133.363281 218.769531 132.394531 216.964844 C 131.429688 215.160156 130.558594 213.3125 129.773438 211.421875 C 128.992188 209.53125 128.300781 207.605469 127.707031 205.644531 C 127.113281 203.6875 126.617188 201.703125 126.214844 199.695312 C 125.816406 197.6875 125.515625 195.664062 125.316406 193.625 C 125.117188 191.589844 125.015625 189.546875 125.015625 187.5 C 125.015625 185.453125 125.117188 183.410156 125.316406 181.375 C 125.515625 179.335938 125.816406 177.3125 126.214844 175.304688 C 126.617188 173.296875 127.113281 171.3125 127.707031 169.355469 C 128.300781 167.394531 128.992188 165.46875 129.773438 163.578125 C 130.558594 161.6875 131.429688 159.839844 132.394531 158.035156 C 133.363281 156.230469 134.414062 154.476562 135.550781 152.773438 C 136.6875 151.070312 137.90625 149.429688 139.203125 147.84375 C 140.503906 146.261719 141.875 144.746094 143.324219 143.300781 C 144.769531 141.851562 146.285156 140.480469 147.867188 139.179688 C 149.453125 137.882812 151.09375 136.664062 152.796875 135.527344 C 154.5 134.390625 156.253906 133.339844 158.058594 132.371094 C 159.863281 131.40625 161.710938 130.535156 163.601562 129.75 C 165.492188 128.96875 167.417969 128.277344 169.378906 127.683594 C 171.335938 127.089844 173.320312 126.59375 175.328125 126.191406 C 177.335938 125.792969 179.359375 125.492188 181.398438 125.292969 C 183.433594 125.09375 185.476562 124.992188 187.523438 124.992188 Z M 187.523438 124.992188 "/>
</g>
</svg>
