<?xml version="1.0" encoding="UTF-8"?>
<svg xmlns="http://www.w3.org/2000/svg" xmlns:xlink="http://www.w3.org/1999/xlink" width="375pt" height="374.999991pt" viewBox="0 0 375 374.999991" version="1.2">
<g id="surface1">
<path style=" stroke:none;fill-rule:nonzero;fill:rgb(100%,100%,100%);fill-opacity:1;" d="M 0 26.859375 C 0 12.023438 12.328125 0 27.539062 0 L 347.460938 0 C 362.671875 0 375 12.023438 375 26.859375 L 375 348.140625 C 375 362.976562 362.671875 375 347.460938 375 L 27.539062 375 C 12.328125 375 0 362.976562 0 348.140625 Z M 115.851562 313.921875 L 115.851562 144.585938 L 59.578125 144.585938 L 59.578125 313.921875 Z M 87.726562 121.453125 C 107.34375 121.453125 119.554688 108.46875 119.554688 92.203125 C 119.203125 75.585938 107.367188 62.953125 88.101562 62.953125 C 68.835938 62.953125 56.25 75.609375 56.25 92.203125 C 56.25 108.46875 68.460938 121.453125 87.351562 121.453125 Z M 202.757812 313.921875 L 202.757812 219.351562 C 202.757812 214.289062 203.132812 209.226562 204.632812 205.617188 C 208.6875 195.515625 217.945312 185.039062 233.507812 185.039062 C 253.875 185.039062 262.007812 200.554688 262.007812 223.335938 L 262.007812 313.921875 L 318.28125 313.921875 L 318.28125 216.796875 C 318.28125 164.765625 290.53125 140.578125 253.5 140.578125 C 223.640625 140.578125 210.257812 156.984375 202.757812 168.539062 L 202.757812 169.125 L 202.382812 169.125 C 202.507812 168.929688 202.632812 168.734375 202.757812 168.539062 L 202.757812 144.585938 L 146.507812 144.585938 C 147.210938 160.476562 146.507812 313.921875 146.507812 313.921875 Z M 202.757812 313.921875 "/>
</g>
</svg>
