<?xml version="1.0" encoding="UTF-8"?>
<svg xmlns="http://www.w3.org/2000/svg" xmlns:xlink="http://www.w3.org/1999/xlink" viewBox="0 0 24 24" width="24px" height="24px">
<g id="surface11605698">
<path style=" stroke:none;fill-rule:nonzero;fill:rgb(100%,100%,100%);fill-opacity:1;" d="M 19 3 L 5 3 C 3.894531 3 3 3.894531 3 5 L 3 19 C 3 20.105469 3.894531 21 5 21 L 19 21 C 20.105469 21 21 20.105469 21 19 L 21 5 C 21 3.894531 20.105469 3 19 3 Z M 17.050781 9.515625 C 17.050781 9.601562 17.050781 9.683594 17.050781 9.855469 C 17.050781 13.113281 14.5625 16.886719 10.019531 16.886719 C 8.648438 16.886719 7.363281 16.457031 6.25 15.773438 C 6.421875 15.773438 6.679688 15.773438 6.851562 15.773438 C 7.964844 15.773438 9.078125 15.34375 9.9375 14.742188 C 8.820312 14.742188 7.964844 13.972656 7.621094 13.027344 C 7.792969 13.027344 7.964844 13.113281 8.050781 13.113281 C 8.308594 13.113281 8.480469 13.113281 8.738281 13.027344 C 7.621094 12.773438 6.765625 11.828125 6.765625 10.628906 C 7.109375 10.800781 7.453125 10.886719 7.878906 10.972656 C 7.195312 10.371094 6.765625 9.6875 6.765625 8.828125 C 6.765625 8.398438 6.851562 7.972656 7.109375 7.628906 C 8.308594 9.085938 10.109375 10.113281 12.164062 10.199219 C 12.164062 10.027344 12.078125 9.855469 12.078125 9.601562 C 12.078125 8.230469 13.195312 7.113281 14.566406 7.113281 C 15.253906 7.113281 15.9375 7.371094 16.367188 7.886719 C 16.964844 7.800781 17.480469 7.542969 17.910156 7.285156 C 17.738281 7.886719 17.308594 8.3125 16.796875 8.65625 C 17.308594 8.570312 17.738281 8.484375 18.253906 8.226562 C 17.90625 8.742188 17.480469 9.171875 17.050781 9.515625 Z M 17.050781 9.515625 "/>
</g>
</svg>
