<?xml version="1.0" encoding="UTF-8"?>
<svg xmlns="http://www.w3.org/2000/svg" xmlns:xlink="http://www.w3.org/1999/xlink" width="375pt" height="374.999991pt" viewBox="0 0 375 374.999991" version="1.2">
<g id="surface1">
<path style=" stroke:none;fill-rule:nonzero;fill:rgb(100%,100%,100%);fill-opacity:1;" d="M 117.796875 351.5625 C 259.3125 351.5625 336.726562 234.304688 336.726562 132.796875 C 336.726562 129.515625 336.726562 126.1875 336.585938 122.90625 C 344.121094 117.449219 351.117188 111.371094 357.570312 104.671875 C 364.023438 97.96875 369.832031 90.75 375 83.015625 C 360.84375 89.257812 346.085938 93.304688 330.726562 95.15625 C 334.714844 92.769531 338.460938 90.050781 341.960938 86.988281 C 345.460938 83.929688 348.65625 80.582031 351.554688 76.945312 C 354.449219 73.308594 356.996094 69.441406 359.195312 65.347656 C 361.394531 61.25 363.210938 56.992188 364.640625 52.570312 C 357.082031 57.046875 349.195312 60.847656 340.984375 63.96875 C 332.769531 67.089844 324.351562 69.484375 315.726562 71.15625 C 314.289062 69.625 312.792969 68.15625 311.234375 66.746094 C 309.675781 65.339844 308.0625 63.996094 306.394531 62.71875 C 304.726562 61.441406 303.011719 60.238281 301.246094 59.101562 C 299.480469 57.964844 297.667969 56.902344 295.816406 55.914062 C 293.960938 54.925781 292.074219 54.015625 290.144531 53.183594 C 288.21875 52.347656 286.257812 51.597656 284.269531 50.921875 C 282.28125 50.25 280.265625 49.660156 278.230469 49.148438 C 276.191406 48.640625 274.136719 48.21875 272.0625 47.878906 C 269.992188 47.535156 267.910156 47.28125 265.816406 47.113281 C 263.722656 46.941406 261.625 46.855469 259.527344 46.859375 C 257.425781 46.859375 255.328125 46.949219 253.238281 47.121094 C 251.144531 47.292969 249.0625 47.550781 246.988281 47.894531 C 244.917969 48.238281 242.863281 48.664062 240.828125 49.175781 C 238.789062 49.6875 236.777344 50.28125 234.789062 50.957031 C 232.800781 51.632812 230.84375 52.390625 228.917969 53.226562 C 226.992188 54.0625 225.101562 54.976562 223.25 55.96875 C 221.398438 56.957031 219.589844 58.023438 217.824219 59.160156 C 216.0625 60.300781 214.347656 61.507812 212.679688 62.789062 C 211.015625 64.066406 209.402344 65.410156 207.847656 66.820312 C 206.292969 68.234375 204.796875 69.703125 203.363281 71.238281 C 201.925781 72.769531 200.554688 74.359375 199.25 76.003906 C 197.945312 77.648438 196.710938 79.34375 195.542969 81.089844 C 194.375 82.839844 193.28125 84.628906 192.261719 86.464844 C 191.242188 88.300781 190.300781 90.175781 189.433594 92.085938 C 188.566406 94 187.777344 95.945312 187.070312 97.921875 C 186.363281 99.898438 185.738281 101.902344 185.195312 103.929688 C 184.648438 105.960938 184.191406 108.007812 183.8125 110.074219 C 183.4375 112.140625 183.144531 114.214844 182.9375 116.304688 C 182.734375 118.398438 182.613281 120.492188 182.578125 122.589844 C 182.542969 124.691406 182.59375 126.789062 182.730469 128.882812 C 182.867188 130.980469 183.089844 133.066406 183.394531 135.144531 C 183.703125 137.222656 184.09375 139.28125 184.570312 141.328125 C 176.941406 140.945312 169.355469 140.164062 161.8125 138.988281 C 154.265625 137.808594 146.804688 136.242188 139.421875 134.28125 C 132.042969 132.320312 124.785156 129.980469 117.648438 127.261719 C 110.511719 124.539062 103.539062 121.453125 96.726562 118 C 89.914062 114.550781 83.304688 110.75 76.890625 106.605469 C 70.476562 102.460938 64.296875 97.992188 58.351562 93.199219 C 52.40625 88.40625 46.726562 83.316406 41.316406 77.929688 C 35.902344 72.542969 30.789062 66.886719 25.96875 60.960938 C 25.363281 62.007812 24.78125 63.066406 24.226562 64.140625 C 23.667969 65.214844 23.136719 66.304688 22.632812 67.402344 C 22.128906 68.5 21.648438 69.613281 21.195312 70.734375 C 20.742188 71.855469 20.316406 72.988281 19.917969 74.128906 C 19.519531 75.269531 19.148438 76.421875 18.800781 77.582031 C 18.457031 78.742188 18.136719 79.90625 17.847656 81.082031 C 17.558594 82.253906 17.292969 83.4375 17.058594 84.621094 C 16.824219 85.808594 16.617188 87 16.441406 88.199219 C 16.261719 89.394531 16.109375 90.59375 15.988281 91.796875 C 15.867188 93 15.773438 94.207031 15.707031 95.414062 C 15.640625 96.621094 15.605469 97.832031 15.59375 99.039062 C 15.585938 100.25 15.605469 101.460938 15.65625 102.667969 C 15.703125 103.875 15.78125 105.082031 15.886719 106.289062 C 15.992188 107.492188 16.125 108.695312 16.285156 109.894531 C 16.449219 111.09375 16.636719 112.289062 16.855469 113.476562 C 17.074219 114.667969 17.320312 115.851562 17.59375 117.03125 C 17.867188 118.207031 18.167969 119.378906 18.496094 120.542969 C 18.824219 121.707031 19.183594 122.863281 19.566406 124.011719 C 19.949219 125.15625 20.359375 126.296875 20.796875 127.421875 C 21.230469 128.550781 21.695312 129.667969 22.183594 130.773438 C 22.675781 131.882812 23.191406 132.976562 23.730469 134.058594 C 24.269531 135.140625 24.835938 136.207031 25.429688 137.261719 C 26.019531 138.320312 26.636719 139.359375 27.277344 140.386719 C 27.917969 141.410156 28.582031 142.421875 29.269531 143.417969 C 29.957031 144.414062 30.667969 145.390625 31.402344 146.351562 C 32.132812 147.3125 32.890625 148.257812 33.667969 149.183594 C 34.445312 150.109375 35.246094 151.015625 36.066406 151.90625 C 36.890625 152.792969 37.730469 153.664062 38.59375 154.511719 C 39.453125 155.359375 40.335938 156.1875 41.238281 156.996094 C 42.136719 157.804688 43.058594 158.589844 43.996094 159.351562 C 44.933594 160.117188 45.886719 160.859375 46.859375 161.578125 C 47.832031 162.296875 48.824219 162.992188 49.828125 163.664062 C 43.730469 163.457031 37.738281 162.546875 31.851562 160.929688 C 25.96875 159.3125 20.351562 157.039062 15 154.101562 L 15 155.15625 C 15.003906 157.355469 15.097656 159.550781 15.289062 161.742188 C 15.480469 163.929688 15.765625 166.109375 16.140625 168.277344 C 16.519531 170.441406 16.988281 172.589844 17.546875 174.714844 C 18.109375 176.839844 18.757812 178.9375 19.5 181.007812 C 20.238281 183.078125 21.066406 185.113281 21.980469 187.113281 C 22.894531 189.113281 23.894531 191.070312 24.976562 192.984375 C 26.058594 194.898438 27.21875 196.765625 28.460938 198.578125 C 29.703125 200.394531 31.019531 202.152344 32.410156 203.855469 C 33.804688 205.554688 35.265625 207.195312 36.796875 208.773438 C 38.332031 210.347656 39.925781 211.859375 41.589844 213.296875 C 43.25 214.738281 44.96875 216.105469 46.75 217.398438 C 48.527344 218.691406 50.359375 219.90625 52.242188 221.042969 C 54.125 222.175781 56.050781 223.230469 58.023438 224.203125 C 59.996094 225.171875 62.007812 226.058594 64.054688 226.859375 C 66.105469 227.65625 68.183594 228.367188 70.292969 228.988281 C 72.402344 229.609375 74.53125 230.140625 76.6875 230.578125 C 70.054688 232.40625 63.296875 233.304688 56.414062 233.273438 C 51.574219 233.289062 46.777344 232.84375 42.023438 231.9375 C 42.632812 233.832031 43.316406 235.703125 44.070312 237.546875 C 44.828125 239.386719 45.652344 241.199219 46.546875 242.976562 C 47.441406 244.757812 48.40625 246.5 49.4375 248.203125 C 50.46875 249.90625 51.5625 251.566406 52.722656 253.1875 C 53.882812 254.804688 55.105469 256.378906 56.386719 257.902344 C 57.667969 259.425781 59.007812 260.898438 60.40625 262.316406 C 61.800781 263.738281 63.25 265.101562 64.753906 266.410156 C 66.253906 267.71875 67.804688 268.964844 69.402344 270.152344 C 71.003906 271.339844 72.644531 272.460938 74.332031 273.523438 C 76.019531 274.582031 77.742188 275.574219 79.507812 276.5 C 81.269531 277.425781 83.066406 278.28125 84.898438 279.066406 C 86.726562 279.855469 88.585938 280.566406 90.46875 281.210938 C 92.355469 281.851562 94.261719 282.421875 96.191406 282.914062 C 98.121094 283.40625 100.066406 283.824219 102.027344 284.167969 C 103.992188 284.511719 105.960938 284.777344 107.945312 284.96875 C 109.929688 285.15625 111.914062 285.269531 113.90625 285.304688 C 110.527344 287.957031 107.042969 290.46875 103.457031 292.828125 C 99.867188 295.191406 96.1875 297.402344 92.414062 299.457031 C 88.640625 301.515625 84.789062 303.410156 80.859375 305.144531 C 76.929688 306.878906 72.933594 308.445312 68.871094 309.84375 C 64.808594 311.246094 60.695312 312.476562 56.53125 313.53125 C 52.367188 314.589844 48.167969 315.472656 43.929688 316.179688 C 39.691406 316.886719 35.429688 317.414062 31.148438 317.765625 C 26.867188 318.117188 22.578125 318.289062 18.28125 318.28125 C 12.164062 318.308594 6.070312 317.957031 0 317.226562 C 8.753906 322.808594 17.859375 327.742188 27.3125 332.027344 C 36.769531 336.3125 46.476562 339.90625 56.445312 342.8125 C 66.410156 345.71875 76.53125 347.902344 86.808594 349.367188 C 97.085938 350.835938 107.414062 351.566406 117.796875 351.5625 Z M 117.796875 351.5625 "/>
</g>
</svg>
